<?xml version="1.0" encoding="utf-8"?>
<!-- Generator: Adobe Illustrator 19.0.0, SVG Export Plug-In . SVG Version: 6.00 Build 0)  -->
<svg version="1.1" id="Layer_1" xmlns="http://www.w3.org/2000/svg" xmlns:xlink="http://www.w3.org/1999/xlink" x="0px" y="0px"
	 width="1764.3px" height="288.6px" viewBox="437.9 656.7 1764.3 288.6" style="enable-background:new 437.9 656.7 1764.3 288.6;"
	 xml:space="preserve">
<style type="text/css">
	.st0{fill:#B5CC05;}
</style>
<title>AT_Logo2</title>
<path class="st0" d="M771.4,821.2c0,0-50.5-96.9-25.5-122.7c24.4-25.1,55.9,15.9,55.9,96.7c0,46.9-26.9,94.8-58.4,94.8
	s-58.3-47-58.3-94.8c0-53.1,18.8-115.7,53-124.9c-38.3,10.2-64.4,70.2-64.4,124.9c0,52.4,22.6,113.4,69.7,113.4
	c47.1,0,69.7-61.4,69.7-113.4c0-84.2-54-128.8-75.8-111.2C701,713.3,771.4,821.2,771.4,821.2z"/>
<path class="st0" d="M604.6,670.3L581.7,684c10.5,13.3,8,93.3-16.7,156.5c-23.4-34.6-50.2-73.7-50.2-73.7s23.9,41.7,46.7,82.2
	c-7.1,16.4-15.6,30.1-26.2,42c-58,65.6-97.4-29.3-97.4-29.3s48,121.3,105.2,36.9c8.2-12.1,15.4-26.2,22-43.1
	c19.8,35.2,38.3,71.5,37.8,72.9C630.4,836.7,604.6,670.3,604.6,670.3z M598.1,891.2c-3-5.6-15.2-24.1-29.4-45.2
	c20.3-56.4,31-125.1,28.1-145C596.8,701,610.5,795.7,598.1,891.2L598.1,891.2z"/>
<path class="st0" d="M634.8,880.3l-15.8,16.1c33-2.7,72.9,48.9,124.5,48.9c67.7,0,132-123.9,132-123.9s-68.8,110.7-132,110.7
	C697.4,932.1,662.6,881.9,634.8,880.3z"/>
<path class="st0" d="M639.3,929c17-40.5,22-182.8,20.6-258.8L637,684C650.1,697,652.3,880.8,639.3,929z"/>
<path class="st0" d="M956.3,929c-8.7-48.7-22.6-209.5,9.2-258.8c-30,32.3-26,143.8-25.9,178c-26.2-74.4-64.3-186.5-113.8-166
	c-46.7,19.4,33,138.9,33,138.9S798,712.8,832.6,696.5C868.7,679.5,944,845.3,956.3,929z"/>
<path class="st0" d="M825.2,670.5c17,40.5,22,182.8,20.6,258.7l-22.9-13.7C836,902.5,838.2,718.7,825.2,670.5z"/>
<path class="st0" d="M1920.8,929.2c17-40.5,22-182.8,20.6-258.8l-22.9,13.7C1931.6,697.2,1933.8,881,1920.8,929.2z"/>
<path class="st0" d="M1917.8,880.5l-15.8,16.1c65.7-2.2,78.5,110.8,186.8-75.2C1980.5,987.7,1966.4,885.1,1917.8,880.5z"/>
<path class="st0" d="M2043.3,675.1c40,34.3-34.7,91-34.7,91s58.6-51.1,20.3-78.7c-43.9-31.7-194.7,134-194.7,134
	S1985.6,625.7,2043.3,675.1z"/>
<polygon class="st0" points="2001.6,752.4 1947.9,798.2 1939.5,785.7 "/>
<path class="st0" d="M1555,929.2c17-40.5,22-182.8,20.6-258.8l-22.9,13.7C1565.8,697.2,1568,881,1555,929.2z"/>
<path class="st0" d="M1552.1,880.5l-15.8,16.1c65.7-2.2,78.5,110.8,186.8-75.2C1614.7,987.7,1600.6,885.1,1552.1,880.5z"/>
<path class="st0" d="M1677.5,675.1c40,34.3-34.7,91-34.7,91s58.6-51.1,20.3-78.7c-43.9-31.7-194.7,134-194.7,134
	S1619.8,625.7,1677.5,675.1z"/>
<polygon class="st0" points="1635.8,752.4 1582.1,798.2 1573.7,785.7 "/>
<path class="st0" d="M977.9,929.2c17-40.5,22-182.8,20.6-258.8l-22.9,13.7C988.7,697.2,990.9,881,977.9,929.2z"/>
<path class="st0" d="M975,880.5l-15.8,16.1c65.7-2.2,78.5,110.8,186.8-75.2C1037.6,987.7,1023.6,885.1,975,880.5z"/>
<path class="st0" d="M1100.4,675.1c40,34.3-34.7,91-34.7,91s58.6-51.1,20.3-78.7c-44-31.7-194.7,134-194.7,134
	S1042.7,625.7,1100.4,675.1z"/>
<polygon class="st0" points="1058.7,752.4 1005,798.2 996.6,785.7 "/>
<path class="st0" d="M1541.3,734.1c0,0-17.7-51.3-63.2-51.3c-80.6,0-60.8,227.2,0,227.2c35.9,0,51.5-51.2,51.5-115.5
	c0-78.1-48-36.3-74.9,24.8c27.5-80.1,93.5-122.2,93.5-24.8c0,25.6-14.6,134-70.1,134c-83.9,0-82.9-262.1,0-262.1
	C1519.9,666.4,1541.3,734.1,1541.3,734.1z"/>
<path class="st0" d="M1411.7,658.6c0,0-192.1-7.9-216.8,53.3c-22.7,56.4,107.2,108.4,107.2,108.4s-154.9-54.1-126.4-115.3
	C1204.9,642.3,1411.7,658.6,1411.7,658.6z"/>
<path class="st0" d="M1493.5,820.3c0,0-73.6,106.8-162.8,106.8c-126.2,0-110.8-198.4-51.1-261.4c-59.6,37.9-111.9,279.6,51.1,279.6
	C1413.6,945.3,1493.5,820.3,1493.5,820.3z"/>
<path class="st0" d="M1876.6,658.6c0,0-192.1-7.9-216.8,53.3c-22.7,56.4,110.3,109.5,110.3,109.5s-158.1-55.2-129.6-116.4
	C1669.8,642.3,1876.6,658.6,1876.6,658.6z"/>
<path class="st0" d="M1958.4,820.3c0,0-73.6,106.8-162.8,106.8c-126.2,0-110.8-198.4-51.1-261.4c-59.6,37.9-111.9,279.6,51,279.6
	C1878.4,945.3,1958.4,820.3,1958.4,820.3z"/>
<path class="st0" d="M1358.6,820.3c0,0-50.5-96.9-25.5-122.7c24.4-25.1,55.9,15.9,55.9,96.7c0,46.9-26.9,94.8-58.4,94.8
	c-31.5,0-58.3-47-58.3-94.8c0-53.1,18.8-115.7,53-124.9c-38.3,10.2-64.4,70.2-64.4,124.9c0,52.4,22.6,113.4,69.7,113.4
	s69.7-61.4,69.7-113.4c0-84.2-54-128.8-75.8-111.2C1288.2,712.4,1358.6,820.3,1358.6,820.3z"/>
<path class="st0" d="M2062.3,928.5c17-40.5,22-182.8,20.6-258.8l-22.9,13.7C2073.1,696.4,2075.3,880.3,2062.3,928.5z"/>
<path class="st0" d="M2192.7,678.1c56.3,65.9-156.9,143.1-156.9,143.1s190.8-82.7,140.8-132.4c-30.7-30.5-140.8,76.5-140.8,76.5
	S2148,625.9,2192.7,678.1z"/>
<path class="st0" d="M2121.6,747.8l6.9-21.5c28.4,59.2,135.5,20,20.7,202.1C2246.5,755.5,2148.1,788.8,2121.6,747.8z"/>
<path class="st0" d="M1893.2,928.3c-17-40.5-22-182.8-20.6-258.8l22.9,13.7C1882.4,696.3,1880.2,880.1,1893.2,928.3z"/>
<path class="st0" d="M1771.4,667.8c17,40.5,22,182.8,20.6,258.8l-22.9-13.7C1782.2,899.8,1784.4,715.9,1771.4,667.8z"/>
<polygon class="st0" points="1870.9,752.4 1795.9,821.4 1787.9,807.9 "/>
</svg>
