<?xml version="1.0" encoding="utf-8"?>
<!-- Generator: Adobe Illustrator 19.0.0, SVG Export Plug-In . SVG Version: 6.00 Build 0)  -->
<svg version="1.1" id="Layer_1" xmlns="http://www.w3.org/2000/svg" xmlns:xlink="http://www.w3.org/1999/xlink" x="0px" y="0px"
	 width="1030px" height="573.8px" viewBox="805 514.1 1030 573.8" style="enable-background:new 805 514.1 1030 573.8;"
	 xml:space="preserve">
<style type="text/css">
	.st0{fill:#B5CC05;}
</style>
<title>AT_Logo1</title>
<path class="st0" d="M1196.2,668.2c0,0-50.5-96.9-25.5-122.7c24.4-25.2,55.9,15.9,55.9,96.7c0,46.9-26.9,94.8-58.4,94.8
	c-31.5,0-58.3-47-58.3-94.8c0-53.1,18.8-115.7,53-124.9c-38.3,10.2-64.4,70.2-64.4,124.9c0,52.4,22.6,113.4,69.7,113.4
	s69.7-61.4,69.7-113.4c0-84.2-54-128.8-75.8-111.2C1125.7,560.3,1196.2,668.2,1196.2,668.2z"/>
<path class="st0" d="M1029.4,517.3l-22.9,13.7c10.5,13.3,8,93.3-16.7,156.5c-23.4-34.6-50.2-73.7-50.2-73.7s23.9,41.7,46.7,82.2
	c-7.2,16.4-15.7,30.1-26.2,42c-58,65.6-97.4-29.3-97.4-29.3s48,121.3,105.2,36.9c8.2-12.1,15.4-26.2,22-43.1
	c19.8,35.2,38.3,71.5,37.8,72.9C1055.2,683.7,1029.4,517.3,1029.4,517.3z M1022.9,738.2c-3-5.6-15.2-24.1-29.4-45.2
	c20.3-56.4,31-125.1,28.1-145C1021.6,548,1035.2,642.7,1022.9,738.2z"/>
<path class="st0" d="M1059.5,727.4l-15.8,16.1c33-2.7,72.9,48.9,124.5,48.9c67.7,0,132-123.9,132-123.9s-68.8,110.7-132,110.7
	C1122.1,779.1,1087.4,728.9,1059.5,727.4z"/>
<path class="st0" d="M1064.1,776.1c17-40.5,22-182.8,20.6-258.8l-22.9,13.7C1074.9,544,1077.1,727.9,1064.1,776.1z"/>
<path class="st0" d="M1381.1,776.1c-8.7-48.7-22.6-209.5,9.2-258.8c-30,32.3-26,143.8-25.9,178c-26.2-74.4-64.3-186.5-113.8-166
	c-46.7,19.4,33,138.9,33,138.9s-60.8-108.4-26.2-124.7C1293.5,526.5,1368.7,692.3,1381.1,776.1z"/>
<path class="st0" d="M1250,517.5c17,40.5,22,182.8,20.6,258.8l-22.9-13.7C1260.8,749.5,1263,565.7,1250,517.5z"/>
<path class="st0" d="M1402.7,776.2c17-40.5,22-182.8,20.6-258.8l-22.9,13.7C1413.5,544.2,1415.7,728.1,1402.7,776.2z"/>
<path class="st0" d="M1399.8,727.5l-15.8,16.1c65.7-2.2,78.5,110.8,186.8-75.2C1462.4,834.7,1448.3,732.1,1399.8,727.5z"/>
<path class="st0" d="M1525.2,522.1c40,34.3-34.7,91-34.7,91s58.6-51.1,20.3-78.7c-43.9-31.7-194.7,134-194.7,134
	S1467.5,472.7,1525.2,522.1z"/>
<polygon class="st0" points="1483.5,599.4 1429.8,645.2 1421.4,632.7 "/>
<path class="st0" d="M1553.6,1071.8c17-40.5,22-182.8,20.6-258.7l-22.9,13.7C1564.4,839.8,1566.6,1023.6,1553.6,1071.8z"/>
<path class="st0" d="M1550.7,1023.1l-15.8,16.1c65.7-2.2,78.5,110.8,186.8-75.2C1613.3,1130.3,1599.3,1027.7,1550.7,1023.1z"/>
<path class="st0" d="M1676.1,817.7c40,34.3-34.7,91-34.7,91s58.6-51.1,20.3-78.7C1617.7,798.3,1467,964,1467,964
	S1618.4,768.3,1676.1,817.7z"/>
<polygon class="st0" points="1634.4,895 1580.7,940.8 1572.3,928.3 "/>
<path class="st0" d="M1187.8,1071.8c17-40.5,22-182.8,20.6-258.7l-22.9,13.7C1198.7,839.8,1200.8,1023.6,1187.8,1071.8z"/>
<path class="st0" d="M1184.9,1023.1l-15.8,16.1c65.7-2.2,78.5,110.8,186.8-75.2C1247.5,1130.3,1233.5,1027.7,1184.9,1023.1z"/>
<path class="st0" d="M1310.3,817.7c40,34.3-34.7,91-34.7,91s58.6-51.1,20.3-78.7C1252,798.3,1101.3,964,1101.3,964
	S1252.7,768.3,1310.3,817.7z"/>
<polygon class="st0" points="1268.6,895 1214.9,940.8 1206.5,928.3 "/>
<path class="st0" d="M1174.2,876.7c0,0-17.7-51.3-63.2-51.3c-80.6,0-60.8,227.2,0,227.2c35.9,0,51.5-51.2,51.5-115.5
	c0-78.1-48-36.3-74.9,24.8c27.5-80.1,93.5-122.2,93.5-24.8c0,25.6-14.6,134-70.1,134c-83.9,0-82.9-262.1,0-262.1
	C1152.7,809,1174.2,876.7,1174.2,876.7z"/>
<path class="st0" d="M1044.5,801.2c0,0-192.1-7.9-216.8,53.3C805,910.9,934.9,962.9,934.9,962.9S780,908.8,808.5,847.6
	C837.8,784.9,1044.5,801.2,1044.5,801.2z"/>
<path class="st0" d="M1126.3,962.9c0,0-73.6,106.8-162.8,106.8c-126.2,0-110.8-198.4-51.1-261.4c-59.6,37.9-111.9,279.6,51,279.6
	C1046.4,1087.9,1126.3,962.9,1126.3,962.9z"/>
<path class="st0" d="M1509.4,801.2c0,0-192.1-7.9-216.8,53.3C1269.9,910.9,1403,964,1403,964s-158.1-55.2-129.6-116.4
	C1302.7,784.9,1509.4,801.2,1509.4,801.2z"/>
<path class="st0" d="M1591.2,962.9c0,0-73.6,106.8-162.8,106.8c-126.2,0-110.8-198.4-51.1-261.4c-59.6,37.9-111.9,279.6,51,279.6
	C1511.3,1087.9,1591.2,962.9,1591.2,962.9z"/>
<path class="st0" d="M991.5,962.9c0,0-50.5-96.9-25.5-122.7c24.4-25.2,55.9,15.9,55.9,96.7c0,46.9-26.9,94.8-58.4,94.8
	s-58.3-47-58.3-94.8c0-53.1,18.8-115.7,53-124.9c-38.3,10.2-64.4,70.2-64.4,124.9c0,52.4,22.6,113.4,69.7,113.4
	s69.7-61.4,69.7-113.4c0-84.2-54-128.8-75.8-111.2C921,855,991.5,962.9,991.5,962.9z"/>
<path class="st0" d="M1695.1,1071.1c17-40.5,22-182.8,20.6-258.7l-22.9,13.7C1705.9,839,1708.1,1022.9,1695.1,1071.1z"/>
<path class="st0" d="M1825.5,820.7c56.3,65.9-156.9,143.1-156.9,143.1s190.8-82.7,140.8-132.4c-30.7-30.5-140.8,76.5-140.8,76.5
	S1780.8,768.5,1825.5,820.7z"/>
<path class="st0" d="M1754.4,890.4l6.9-21.5c28.4,59.2,135.5,20,20.7,202.1C1879.3,898.1,1781,931.4,1754.4,890.4z"/>
<path class="st0" d="M1526.1,1070.9c-17-40.5-22-182.8-20.6-258.8l22.9,13.7C1515.2,838.9,1513,1022.7,1526.1,1070.9z"/>
<path class="st0" d="M1404.2,810.3c17,40.5,22,182.8,20.6,258.8l-22.9-13.7C1415,1042.4,1417.2,858.5,1404.2,810.3z"/>
<polygon class="st0" points="1503.7,895 1428.8,964 1420.8,950.5 "/>
</svg>
