<?xml version="1.0" standalone="no"?>
<!DOCTYPE svg PUBLIC "-//W3C//DTD SVG 20010904//EN"
 "http://www.w3.org/TR/2001/REC-SVG-20010904/DTD/svg10.dtd">
<svg version="1.0" xmlns="http://www.w3.org/2000/svg"
 width="700.000000pt" height="700.000000pt" viewBox="0 0 700.000000 700.000000"
 preserveAspectRatio="xMidYMid meet">
<metadata>
Created by potrace 1.11, written by Peter Selinger 2001-2013
</metadata>
<g transform="translate(0.000000,700.000000) scale(0.100000,-0.100000)"
fill="#000000" stroke="none">
<path d="M3937 6778 c-9 -7 -23 -29 -31 -48 -12 -30 -12 -39 0 -60 7 -14 14
-36 14 -50 1 -37 10 -47 57 -59 34 -9 44 -17 48 -39 19 -91 36 -103 127 -89
45 6 77 6 114 -3 28 -7 56 -10 62 -6 5 3 21 -3 35 -14 37 -29 81 -26 95 6 9
19 9 30 1 47 -16 30 -28 37 -71 37 -41 0 -49 8 -63 64 -26 102 -141 93 -149
-11 -4 -56 -38 -72 -58 -28 -10 21 -8 32 11 65 27 49 18 73 -36 90 -44 14 -73
37 -73 57 0 17 -36 53 -53 53 -7 0 -21 -6 -30 -12z m69 -43 c8 -31 30 -50 77
-65 49 -15 61 -38 36 -70 -46 -61 4 -146 55 -94 9 8 16 26 16 39 0 62 44 98
87 70 21 -14 21 -16 6 -45 -15 -31 -11 -66 12 -123 7 -17 5 -17 -25 -5 -25 10
-51 11 -113 4 -77 -9 -81 -8 -99 13 -10 13 -18 36 -18 51 0 33 -24 55 -68 65
-24 5 -33 13 -38 33 -3 15 -10 43 -16 63 -8 29 -7 42 6 67 8 16 21 32 28 35
21 7 47 -12 54 -38z m327 -232 c5 -7 26 -13 47 -13 22 0 45 -7 55 -16 21 -21
16 -68 -8 -72 -29 -6 -115 41 -126 68 -17 39 -19 73 -8 95 10 18 12 17 21 -15
6 -19 15 -41 19 -47z"/>
<path d="M3795 6766 c-22 -6 -46 -15 -52 -19 -14 -9 -18 -47 -5 -48 123 -9
152 2 138 54 -7 30 -17 31 -81 13z m70 -45 c-5 -17 -13 -19 -63 -14 -31 3 -59
7 -61 10 -11 9 24 29 67 38 52 12 69 2 57 -34z"/>
<path d="M3612 6748 c-7 -7 -12 -27 -12 -45 0 -38 -18 -43 -45 -13 -28 31 -59
25 -98 -21 -42 -48 -49 -78 -29 -119 19 -40 49 -51 126 -48 l60 3 19 -38 c35
-74 154 -99 175 -38 11 31 1 55 -31 82 -19 15 -17 39 2 39 5 0 24 -16 44 -36
30 -31 37 -34 56 -25 25 14 38 58 22 74 -6 6 -11 23 -11 39 0 29 -33 67 -59
69 -40 3 -68 -4 -87 -22 -31 -29 -48 -25 -40 12 9 44 -2 75 -30 88 -32 14 -47
14 -62 -1z m74 -23 c7 -9 9 -35 6 -60 -4 -43 -3 -45 20 -45 14 0 33 9 43 20
40 45 125 12 125 -48 0 -15 5 -33 11 -39 9 -9 8 -19 -5 -39 l-18 -26 -37 36
c-41 40 -65 45 -80 18 -8 -15 -4 -24 20 -44 46 -41 35 -92 -20 -90 -48 1 -84
24 -107 67 l-20 40 -78 0 c-70 0 -80 2 -97 24 -30 36 -24 75 17 121 41 45 53
48 79 20 23 -25 65 -27 66 -2 1 9 1 23 0 30 -6 38 51 50 75 17z"/>
<path d="M1471 6542 c-25 -9 -59 -31 -77 -47 l-32 -30 0 -112 -1 -112 40 -48
c21 -27 51 -55 66 -64 23 -13 28 -23 29 -58 2 -49 26 -81 57 -75 12 2 32 -3
45 -12 13 -9 28 -12 33 -7 16 16 18 69 4 97 -22 41 -19 60 15 84 l30 22 -18
36 c-16 35 -16 36 3 51 19 14 68 14 143 -2 23 -4 32 3 85 65 14 16 20 17 53 7
33 -10 38 -9 55 12 55 68 -24 162 -102 121 -14 -8 -31 -5 -73 15 -32 15 -65
24 -79 21 -16 -3 -37 4 -57 19 -40 30 -57 23 -70 -26 -15 -53 -28 -57 -27 -8
2 68 -36 83 -122 51z m90 -2 c14 -8 19 -21 19 -55 0 -33 4 -45 15 -45 17 0 35
30 35 60 0 30 25 35 56 11 19 -15 39 -21 64 -19 22 1 51 -7 77 -21 33 -19 47
-22 70 -14 46 15 74 10 96 -19 19 -26 19 -55 -2 -87 -7 -11 -15 -11 -44 -2
-45 15 -69 4 -87 -40 -13 -31 -14 -31 -69 -24 -100 12 -136 5 -146 -26 -4 -12
-1 -32 6 -46 12 -22 10 -26 -18 -52 -33 -30 -34 -47 -8 -98 22 -41 -7 -100
-30 -63 -3 6 -22 10 -40 10 -37 0 -42 8 -47 80 -2 28 -9 38 -33 49 -16 8 -34
21 -39 29 -4 8 -16 22 -26 32 -33 33 -38 54 -36 158 1 94 3 104 26 126 21 21
108 64 133 65 5 1 17 -4 28 -9z"/>
<path d="M3935 6512 c-6 -4 -16 -19 -22 -34 -7 -14 -24 -32 -40 -40 -21 -10
-28 -20 -28 -43 0 -26 4 -30 29 -33 18 -2 36 4 50 17 11 11 33 24 48 30 32 12
46 51 29 87 -10 24 -44 32 -66 16z m56 -23 c13 -25 -2 -69 -23 -69 -7 0 -26
-11 -43 -25 -34 -30 -69 -29 -73 1 -2 16 4 24 28 32 21 8 35 23 45 47 18 40
48 47 66 14z"/>
<path d="M3005 6400 c-6 -19 -2 -56 11 -103 3 -9 20 -24 38 -31 36 -15 52 -56
35 -88 -14 -26 -66 -50 -102 -46 -26 2 -35 10 -49 40 -32 67 -91 87 -142 47
-21 -16 -34 -19 -65 -14 -26 4 -49 2 -68 -8 -16 -9 -47 -18 -68 -22 -64 -11
-71 -14 -83 -39 -8 -18 -6 -29 9 -52 23 -35 24 -60 3 -68 -10 -4 -23 3 -36 19
-16 21 -28 25 -68 25 -52 0 -59 5 -90 57 -22 36 -87 74 -131 75 -24 1 -42 -12
-90 -60 -60 -60 -60 -61 -54 -105 l7 -45 -49 -18 c-52 -19 -83 -41 -83 -58 0
-6 -12 -34 -27 -63 -23 -46 -25 -58 -16 -87 16 -51 -21 -153 -62 -176 -27 -15
-30 -22 -28 -59 1 -45 20 -101 34 -101 19 0 19 -43 -2 -87 -12 -29 -23 -75
-25 -115 -4 -62 -1 -71 37 -145 23 -43 51 -90 63 -104 11 -15 29 -41 38 -58
13 -24 24 -32 39 -29 24 3 35 18 44 60 6 30 38 53 61 44 9 -3 14 -20 14 -43 0
-21 6 -58 14 -83 11 -38 11 -47 0 -58 -15 -14 -19 -72 -5 -72 5 0 7 9 4 20 -3
11 2 31 11 44 13 21 14 30 2 73 -8 26 -14 63 -14 80 -1 43 -8 53 -38 53 -30 0
-64 -33 -64 -62 0 -37 -16 -55 -37 -42 -9 6 -21 19 -27 30 -6 10 -21 33 -32
49 -12 17 -41 68 -65 113 -36 69 -41 85 -29 92 26 17 89 11 133 -12 51 -25 91
-25 198 3 44 11 91 18 104 15 13 -3 47 -25 77 -49 72 -60 89 -67 147 -67 88 0
121 30 121 109 0 21 6 43 13 49 9 8 12 3 12 -21 0 -25 7 -35 34 -52 33 -20 47
-33 116 -108 31 -34 38 -38 67 -32 18 3 46 21 63 39 28 30 85 72 85 62 0 -2
-6 -16 -14 -31 -16 -30 -12 -70 7 -90 7 -6 31 -24 55 -39 49 -31 55 -60 20
-107 -28 -37 -27 -96 1 -179 12 -33 21 -66 21 -74 0 -25 47 -53 101 -60 55 -8
89 -24 89 -43 0 -18 -60 -15 -140 5 -54 14 -68 23 -87 52 -35 55 -42 60 -73
60 -15 0 -35 3 -44 6 -17 6 -96 101 -96 115 0 20 33 38 72 37 32 0 46 5 60 22
16 19 16 25 3 49 -7 15 -20 32 -27 38 -18 15 -108 15 -134 0 -36 -21 -82 -81
-93 -124 -7 -27 -18 -42 -31 -46 -20 -5 -50 15 -50 34 0 6 -12 9 -27 7 -18 -2
-33 -14 -47 -36 -28 -49 -23 -89 14 -127 40 -41 53 -108 24 -123 -11 -5 -30
-8 -44 -6 -34 4 -78 -14 -84 -35 -7 -22 15 -103 36 -132 10 -13 28 -40 41 -59
18 -28 31 -36 66 -41 29 -4 49 -14 64 -31 12 -15 31 -29 43 -32 26 -8 44 -46
44 -91 0 -19 4 -35 9 -35 13 0 2 82 -15 108 -8 13 -25 27 -37 31 -12 5 -32 21
-44 35 -17 19 -33 26 -57 26 -32 0 -66 20 -66 40 0 5 -11 22 -25 39 -14 16
-32 54 -40 83 -17 67 -6 82 58 80 45 -2 74 12 78 38 6 34 -13 88 -41 115 -35
34 -38 66 -10 113 24 39 36 40 62 7 34 -43 78 -24 92 40 4 17 24 50 44 73 35
41 41 44 96 47 51 3 61 1 77 -18 37 -45 18 -77 -46 -77 -43 0 -75 -22 -75 -51
0 -15 60 -94 87 -115 10 -7 34 -14 55 -14 32 0 39 -5 62 -44 25 -43 45 -55
121 -75 52 -14 132 -14 140 0 13 20 -36 58 -84 64 -80 11 -100 23 -111 69 -6
22 -18 58 -26 79 -7 20 -14 59 -13 85 0 44 2 41 25 -48 26 -99 46 -140 67
-141 93 -3 105 -6 148 -37 53 -38 65 -40 137 -23 70 17 116 9 163 -29 54 -43
79 -50 179 -48 113 2 145 -15 135 -69 -3 -19 -8 -40 -11 -47 -3 -7 9 -26 25
-44 17 -17 40 -52 52 -77 12 -25 24 -45 28 -46 3 0 14 -2 25 -4 10 -2 43 7 72
20 61 27 69 48 34 92 -20 25 -20 25 0 50 11 14 20 38 20 52 0 28 25 71 40 71
5 0 35 12 66 27 49 23 58 32 80 80 24 55 47 82 96 108 48 26 49 89 2 101 -34
9 -28 44 9 62 29 14 38 13 74 -14 21 -15 24 -14 48 10 50 50 24 106 -49 106
-24 0 -48 6 -54 13 -18 21 -21 75 -6 88 19 16 32 3 36 -36 2 -22 9 -31 25 -33
34 -5 56 47 51 121 -6 76 -35 107 -102 107 -75 0 -112 64 -65 111 18 18 28 20
70 14 48 -7 49 -6 49 18 0 14 -8 32 -19 39 -10 7 -28 32 -39 54 -14 28 -31 45
-51 52 -18 6 -44 30 -63 58 -50 71 -74 92 -116 100 -20 3 -47 12 -58 20 -12 7
-48 14 -80 16 -50 3 -59 6 -59 22 0 12 12 22 35 30 46 14 52 51 16 93 -37 43
-89 64 -271 107 -88 21 -167 44 -174 52 -13 12 -11 15 17 25 20 7 32 18 32 29
0 34 -107 130 -146 130 -9 0 -27 9 -41 20 -31 24 -37 25 -57 4 -24 -23 -19
-54 14 -103 42 -62 39 -95 -12 -105 -37 -6 -78 36 -60 64 7 11 12 28 12 39 0
29 -73 144 -102 160 -23 13 -29 13 -53 -3 -15 -10 -33 -33 -41 -51 -18 -44
-28 -49 -49 -25 -17 19 -17 21 9 58 34 50 33 73 -5 96 -17 10 -40 34 -51 52
-32 55 -90 74 -103 34z m88 -38 c16 -24 40 -48 53 -54 35 -16 37 -37 8 -82
-25 -37 -26 -42 -12 -65 8 -15 23 -26 34 -25 18 0 21 -7 23 -48 3 -61 -18 -65
-50 -9 -12 21 -32 44 -46 50 -23 10 -23 12 -7 36 26 40 11 93 -31 111 -34 14
-36 18 -50 87 -12 61 37 60 78 -1z m-201 -152 c14 -10 31 -33 38 -49 12 -31
58 -55 85 -45 10 4 18 -3 24 -20 6 -14 28 -34 51 -46 48 -25 59 -48 53 -113
-5 -51 2 -97 15 -97 21 1 35 22 37 61 1 24 3 47 4 51 0 4 15 15 32 23 41 22
58 64 48 124 -8 49 -4 119 6 130 9 9 54 -45 61 -74 4 -17 -2 -34 -20 -58 -15
-19 -28 -53 -31 -78 -4 -30 -15 -53 -35 -74 -39 -40 -62 -98 -54 -133 14 -57
50 -47 84 23 28 57 49 68 133 71 87 3 101 14 95 76 -4 33 -16 63 -42 102 -26
37 -36 60 -32 74 12 38 34 34 56 -11 11 -23 30 -57 41 -75 14 -21 23 -56 26
-95 4 -53 2 -65 -16 -84 -19 -20 -32 -23 -91 -23 -63 0 -72 -3 -104 -30 -19
-17 -40 -48 -47 -68 -18 -58 -37 -75 -78 -67 -20 4 -55 18 -79 32 -99 59 -232
-2 -219 -100 4 -32 2 -38 -11 -35 -36 7 -26 92 16 133 15 15 52 38 82 52 67
29 97 56 105 95 14 63 -18 95 -128 128 -21 7 -56 31 -81 57 -48 49 -101 137
-91 153 10 16 40 12 67 -10z m375 -85 c2 -102 2 -105 -23 -122 -55 -38 -64
-52 -64 -98 0 -35 -4 -45 -16 -45 -14 0 -16 8 -11 57 9 88 1 109 -54 143 -45
27 -61 55 -43 73 12 11 71 -34 86 -66 17 -35 53 -54 65 -35 3 6 5 39 4 74 -2
71 18 123 49 124 3 0 6 -47 7 -105z m-382 -46 c32 -40 86 -75 141 -93 81 -26
91 -39 85 -108 -2 -27 -51 -66 -103 -84 -80 -26 -125 -91 -118 -171 2 -33 -22
-29 -59 8 -42 41 -89 47 -162 20 -89 -34 -117 -85 -95 -171 8 -30 12 -63 10
-74 -12 -61 -7 -94 20 -121 l26 -26 -20 -17 c-14 -11 -21 -29 -21 -52 -1 -79
-33 -110 -113 -110 -43 0 -114 36 -145 74 -21 25 -66 46 -98 46 -15 0 -60 -9
-98 -20 -89 -26 -126 -25 -178 2 -27 14 -60 21 -92 21 l-50 0 4 45 c2 25 12
59 22 76 25 41 24 68 -6 112 -17 25 -25 50 -25 80 0 37 4 45 27 56 20 10 33
29 50 78 20 56 22 71 12 107 -10 37 -9 45 9 68 11 14 23 39 27 54 8 36 27 53
87 75 50 18 60 35 44 78 -9 24 -6 32 29 68 72 75 79 80 102 80 38 0 102 -38
123 -73 31 -52 38 -57 90 -57 40 0 52 -4 69 -26 16 -20 26 -25 45 -20 33 8 38
28 15 71 -32 59 -21 75 66 90 21 4 52 13 67 21 21 11 37 12 63 5 25 -7 39 -6
52 4 16 12 21 8 48 -39 16 -29 39 -64 50 -77z m748 10 c45 -43 59 -69 37 -69
-19 0 -25 -2 -37 -12 -22 -18 -14 -38 20 -52 17 -8 102 -31 187 -52 85 -20
167 -43 181 -50 35 -17 81 -73 77 -92 -2 -8 -30 -26 -63 -39 -101 -41 -109
-46 -123 -88 -8 -22 -18 -51 -23 -65 -5 -14 -21 -39 -34 -54 -35 -41 -36 -75
-3 -168 23 -67 18 -115 -13 -140 -28 -24 -56 -23 -108 5 -34 17 -51 36 -76 82
-51 96 -119 121 -223 84 -28 -9 -40 -8 -82 10 -57 24 -94 26 -132 7 -25 -13
-27 -12 -32 9 -4 14 -23 33 -47 47 -28 15 -42 31 -46 50 -8 40 -49 76 -96 85
-32 7 -42 14 -50 37 -19 58 47 126 124 126 16 0 55 -13 86 -30 88 -47 138 -37
158 30 23 79 70 112 156 109 24 -1 53 1 64 4 62 20 64 143 4 238 -16 25 -29
48 -29 51 0 19 82 -24 123 -63z m-253 16 c11 -13 10 -23 -1 -57 -13 -39 -12
-41 15 -64 31 -28 54 -30 82 -9 27 20 34 19 34 -8 0 -36 -19 -47 -83 -47 -80
0 -119 -20 -149 -78 -25 -49 -54 -66 -60 -35 -8 38 6 74 44 118 29 33 41 57
45 88 5 42 37 107 53 107 4 0 13 -7 20 -15z m648 -433 c15 -15 30 -18 65 -15
30 3 54 -1 69 -11 13 -8 38 -18 57 -21 52 -9 67 -21 107 -81 22 -33 51 -62 74
-74 21 -11 42 -31 49 -48 7 -17 23 -40 37 -53 36 -34 32 -51 -11 -43 -53 10
-84 -2 -100 -38 -25 -60 11 -107 82 -108 64 0 95 -32 100 -101 4 -55 -10 -99
-34 -107 -13 -4 -17 3 -27 51 -8 33 -40 37 -56 7 -13 -24 -4 -85 15 -100 11
-9 44 -15 97 -19 25 -2 32 -38 14 -66 -18 -28 -51 -33 -60 -10 -12 32 -99 4
-109 -35 -4 -17 1 -26 24 -38 53 -31 49 -51 -21 -104 -29 -22 -55 -54 -75 -93
-22 -43 -38 -62 -61 -72 l-32 -12 4 51 c5 73 10 82 54 107 62 35 72 56 58 125
-9 45 -8 66 1 92 19 53 21 72 6 84 -49 41 -97 -65 -60 -130 18 -31 19 -61 3
-95 -17 -39 -27 -30 -25 23 1 35 -4 55 -20 78 -19 26 -21 40 -16 82 4 39 2 58
-11 77 -38 58 -106 71 -106 19 0 -20 -3 -23 -17 -15 -10 5 -33 15 -52 22 -22
8 -38 23 -47 46 -18 42 -51 64 -89 57 -16 -3 -34 -9 -40 -13 -14 -12 -84 -34
-120 -38 -36 -4 -50 -16 -42 -37 9 -23 60 -20 110 5 91 45 95 45 152 -15 27
-30 65 -61 83 -70 17 -9 32 -23 32 -31 0 -19 64 -85 83 -85 20 0 57 -47 57
-71 0 -39 -73 -47 -85 -9 -11 33 -53 70 -81 70 -17 0 -40 11 -57 28 -27 26
-29 26 -42 9 -28 -39 16 -87 79 -87 36 0 66 -25 66 -55 0 -33 -28 -39 -59 -13
-15 13 -51 34 -80 48 -57 26 -54 17 -36 110 6 29 3 40 -19 63 -16 17 -26 40
-26 57 0 35 -29 56 -52 37 -30 -24 -29 -47 2 -79 37 -37 53 -65 44 -79 -4 -7
-21 4 -44 26 -38 37 -39 37 -117 36 -70 -1 -84 2 -117 24 -20 14 -43 25 -50
25 -25 0 -26 -29 -2 -57 22 -25 30 -27 127 -33 110 -6 129 -11 129 -37 0 -9
17 -32 38 -53 48 -45 58 -76 30 -91 -37 -20 -108 19 -108 60 0 34 -45 60 -96
55 -32 -3 -57 1 -82 14 -20 10 -53 26 -72 36 -20 9 -44 32 -55 51 -20 38 -36
43 -55 20 -28 -33 33 -107 123 -149 29 -13 50 -15 95 -10 l59 6 33 -51 c36
-57 80 -95 121 -105 16 -3 53 2 90 14 l63 20 39 -26 c33 -22 47 -25 84 -20 23
3 43 5 43 3 9 -55 9 -80 0 -96 -6 -12 -13 -49 -16 -84 -4 -38 -13 -73 -25 -90
-21 -29 -19 -56 6 -77 8 -7 15 -19 15 -27 0 -18 -97 -62 -122 -55 -10 2 -30
28 -44 57 -13 29 -35 60 -49 69 -21 14 -23 19 -14 48 26 92 0 111 -151 113
-107 1 -109 2 -145 34 -61 53 -117 64 -209 39 -48 -13 -51 -12 -131 37 -27 17
-55 25 -87 25 -50 0 -73 19 -83 68 -2 11 -9 37 -15 58 -20 69 -21 92 -7 135
20 58 13 75 -49 114 -47 31 -54 39 -54 68 0 18 7 42 15 53 8 12 11 25 7 29 -4
5 -2 5 4 2 15 -9 31 11 36 43 2 21 11 27 53 35 83 17 105 41 105 118 0 73 52
94 139 56 51 -21 54 -22 117 -6 102 24 137 8 194 -93 26 -46 44 -65 75 -80 68
-33 116 -26 140 21 20 38 19 74 -5 142 -28 78 -25 104 14 160 19 27 37 66 41
88 11 66 74 100 113 61z m-1204 -51 c27 -26 41 -31 101 -36 88 -8 136 -30 148
-70 11 -35 45 -75 64 -75 39 0 66 -126 38 -179 -15 -30 -23 -34 -98 -46 -30
-5 -43 -14 -62 -45 -14 -22 -42 -48 -63 -59 -22 -11 -47 -32 -56 -46 -38 -58
-97 -49 -138 20 -18 28 -42 52 -70 66 -53 27 -59 36 -52 77 5 27 2 38 -21 62
-26 27 -27 33 -21 88 4 36 2 71 -5 88 -26 69 -6 129 54 160 77 41 135 39 181
-5z m1155 -557 c11 -14 23 -34 26 -44 3 -10 20 -23 38 -30 18 -6 40 -16 49
-21 10 -5 23 -6 30 -4 16 6 68 -40 68 -60 0 -29 -31 -14 -46 21 -18 42 -30 40
-14 -2 12 -32 26 -44 53 -44 30 0 20 45 -18 79 -37 32 -43 47 -22 54 20 7 53
-13 70 -43 20 -32 22 -63 6 -91 -9 -17 -6 -28 15 -60 28 -42 34 -71 22 -107
-11 -33 21 -42 46 -13 22 28 23 78 3 117 -8 16 -15 37 -15 47 0 33 30 76 54
77 8 0 4 -38 -11 -100 -6 -22 -5 -51 3 -80 14 -56 4 -80 -42 -105 -52 -28 -65
-48 -70 -110 -5 -63 -13 -80 -45 -88 -22 -6 -22 -8 -2 70 3 13 2 39 -1 58 l-7
36 -46 -5 c-37 -3 -54 1 -84 20 -46 29 -55 29 -116 6 -83 -32 -120 -13 -212
108 -24 31 -27 32 -79 27 -78 -8 -163 33 -207 100 -15 22 -15 27 -3 39 12 13
18 9 39 -23 13 -21 38 -44 54 -52 17 -8 46 -23 67 -33 21 -11 54 -18 80 -17
58 3 88 -8 88 -32 0 -31 51 -79 91 -85 74 -12 89 50 25 107 -18 16 -39 42 -46
58 -14 35 -36 42 -149 45 -81 2 -121 19 -121 53 0 18 5 17 50 -13 34 -23 49
-26 120 -25 81 1 82 1 113 -34 33 -38 52 -44 61 -19 10 26 7 32 -30 74 -38 42
-42 75 -9 75 15 0 21 -9 26 -36 3 -20 15 -46 27 -59 26 -28 26 -26 7 -80 -18
-52 -12 -62 61 -97 29 -13 60 -33 70 -44 32 -35 87 -12 79 33 -7 34 -36 56
-85 62 -52 7 -73 24 -68 57 l3 24 24 -27 c14 -16 35 -28 48 -28 36 0 58 -15
81 -54 35 -60 112 -58 112 3 0 31 -34 81 -54 81 -22 0 -65 39 -82 75 -9 19
-26 37 -37 41 -12 4 -48 33 -79 66 -66 67 -75 69 -170 21 -48 -24 -88 -28 -89
-8 -1 6 17 13 40 17 22 4 59 16 83 27 62 28 102 27 127 -5z"/>
<path d="M2259 5880 c-24 -23 -30 -37 -26 -57 6 -34 -9 -76 -26 -70 -6 2 -12
13 -13 24 -2 36 -13 53 -33 53 -26 0 -34 -16 -60 -125 -29 -124 -30 -142 -13
-202 11 -38 12 -63 5 -90 -14 -56 1 -103 32 -103 19 0 26 7 33 33 5 17 5 42 1
55 -9 24 -8 25 34 22 35 -2 55 15 78 64 20 46 17 61 -28 102 -18 18 -33 40
-33 50 0 36 25 69 55 74 27 5 30 9 33 49 2 24 10 54 18 67 20 29 15 78 -9 82
-9 2 -31 -11 -48 -28z m61 -8 c0 -10 -7 -28 -16 -40 -8 -12 -16 -43 -17 -67
-1 -42 -3 -45 -28 -45 -34 0 -49 -19 -56 -69 -5 -37 -2 -43 31 -73 42 -37 45
-62 13 -109 -20 -29 -29 -34 -63 -34 -39 0 -39 0 -36 -35 4 -48 -5 -80 -23
-80 -18 0 -18 3 -21 100 0 41 -5 99 -9 127 -5 34 -3 70 5 100 6 27 14 58 16
70 9 46 30 97 41 101 13 4 17 -3 27 -50 12 -54 70 -22 66 35 -4 48 1 63 27 79
31 18 43 15 43 -10z"/>
<path d="M2677 5505 c-22 -73 -22 -87 7 -114 18 -17 32 -22 50 -17 15 4 36 -1
55 -12 28 -15 33 -16 57 -2 15 8 37 35 50 60 23 42 23 46 7 58 -24 17 -66 15
-102 -5 -28 -16 -33 -16 -41 -3 -5 8 -10 26 -10 41 0 29 -17 49 -40 49 -11 0
-22 -19 -33 -55z m51 33 c7 -7 12 -24 12 -38 0 -47 45 -67 77 -34 15 15 67 14
82 -2 10 -10 -36 -78 -62 -94 -23 -13 -28 -13 -46 4 -14 13 -29 17 -49 13 -21
-4 -35 0 -51 14 -25 24 -25 24 -4 94 18 58 22 62 41 43z"/>
<path d="M2900 5381 c-5 -11 -10 -26 -10 -34 0 -18 46 -61 58 -53 16 10 24 76
11 92 -16 20 -46 17 -59 -5z m48 -3 c11 -14 5 -68 -8 -68 -9 0 -40 28 -40 36
0 12 21 44 29 44 5 0 13 -6 19 -12z"/>
<path d="M2863 5287 c-4 -7 -15 -25 -23 -42 -9 -16 -22 -40 -30 -51 -17 -28
-7 -54 23 -54 36 0 107 55 107 83 -1 41 -60 91 -77 64z m55 -40 c13 -26 12
-31 -8 -52 -30 -32 -78 -51 -92 -37 -8 8 -4 22 15 50 15 21 27 46 27 56 0 28
43 16 58 -17z"/>
<path d="M3193 6403 c-34 -3 -43 -8 -43 -23 0 -24 47 -50 89 -50 42 0 59 32
31 60 -11 11 -23 19 -27 18 -5 -1 -27 -3 -50 -5z m75 -35 c-4 -29 -36 -35 -77
-13 -46 23 -38 35 25 35 52 0 55 -1 52 -22z"/>
<path d="M3307 6395 c-18 -18 -11 -53 12 -59 55 -16 99 -17 104 -3 6 17 -14
37 -60 61 -39 20 -38 19 -56 1z m103 -54 c0 -9 -6 -11 -17 -6 -10 4 -29 8 -43
10 -14 1 -28 3 -32 3 -13 3 -9 40 4 44 17 6 88 -35 88 -51z"/>
<path d="M2165 6389 c-63 -15 -94 -30 -100 -50 -9 -29 2 -39 45 -39 21 0 42
-4 45 -10 10 -16 41 -11 60 10 10 11 24 20 31 20 19 0 32 28 26 56 -5 27 -32
30 -107 13z m93 -27 c2 -14 -3 -24 -15 -29 -10 -3 -28 -15 -40 -26 -17 -15
-26 -17 -35 -9 -7 6 -31 12 -52 14 -78 6 -48 42 54 64 71 16 84 14 88 -14z"/>
<path d="M2908 6374 c-37 -19 -38 -62 -3 -92 24 -21 64 -30 66 -14 0 4 1 32 2
62 2 48 0 55 -18 57 -11 2 -32 -4 -47 -13z m56 -17 c0 -9 -1 -33 -2 -52 -2
-42 -19 -45 -51 -11 -28 29 -24 56 9 73 30 15 45 12 44 -10z"/>
<path d="M4052 6358 c-6 -8 -15 -32 -20 -54 -10 -51 -32 -54 -77 -10 -20 20
-37 36 -38 36 -14 0 -141 -30 -145 -35 -3 -3 -8 -31 -10 -63 -3 -48 -1 -60 17
-76 13 -12 34 -19 56 -18 38 2 42 -4 21 -33 -32 -47 34 -107 123 -112 62 -4
65 -3 104 50 30 40 92 77 129 77 14 0 38 -16 60 -39 47 -50 93 -61 150 -35 51
23 68 21 115 -10 21 -14 48 -26 60 -26 27 0 73 44 73 71 0 38 28 88 59 104 26
13 38 13 76 4 51 -13 133 -7 164 12 29 18 43 55 27 68 -7 6 -16 8 -20 4 -11
-11 -76 -4 -105 11 -14 8 -39 26 -56 40 -40 35 -82 44 -189 42 l-89 -2 -29
-37 c-17 -20 -37 -37 -47 -37 -9 0 -41 18 -71 41 -52 39 -56 40 -110 34 -82
-9 -141 -9 -180 -1 -26 6 -39 4 -48 -6z m80 -12 c40 -13 53 -13 105 1 33 9 67
14 75 11 8 -4 21 -27 28 -52 12 -42 11 -49 -14 -96 -14 -27 -26 -59 -26 -70 0
-25 -25 -37 -44 -20 -38 31 -147 -10 -183 -68 -9 -15 -23 -33 -32 -39 -22 -19
-79 -16 -128 8 -50 24 -63 56 -39 91 24 33 20 38 -28 38 -53 0 -76 19 -76 63
0 55 11 77 39 82 14 3 44 9 65 14 36 8 41 7 75 -25 48 -48 82 -44 93 10 8 38
24 66 37 66 3 0 27 -7 53 -14z m493 1 c5 0 28 3 50 6 49 6 108 -13 144 -46 40
-37 69 -49 123 -50 51 -1 57 -6 33 -30 -35 -36 -92 -42 -191 -21 -59 12 -124
-49 -124 -115 0 -25 -42 -71 -63 -71 -8 0 -31 12 -52 26 -49 33 -81 36 -127
12 -31 -16 -43 -18 -76 -9 -51 14 -72 37 -49 54 9 7 19 27 22 46 3 19 15 46
25 62 22 30 25 64 10 105 -6 15 -9 28 -7 31 2 2 24 -13 48 -32 24 -19 53 -35
65 -35 11 0 39 18 62 40 35 35 45 40 69 34 15 -4 32 -7 38 -7z"/>
<path d="M3336 6312 c-24 -23 41 -105 78 -100 28 4 33 48 8 71 -21 19 -77 38
-86 29z m70 -35 c27 -23 29 -57 4 -57 -12 0 -70 60 -70 72 0 16 40 7 66 -15z"/>
<path d="M2254 6300 c-29 -11 -37 -38 -20 -64 9 -15 32 -25 72 -34 47 -9 63
-18 78 -41 22 -33 65 -61 84 -54 19 7 14 51 -8 63 -11 6 -20 15 -20 21 0 6 9
13 20 16 41 11 15 103 -29 103 -7 0 -26 -8 -42 -17 -23 -14 -34 -15 -57 -6
-15 6 -34 13 -42 16 -8 3 -24 2 -36 -3z m200 -16 c23 -22 20 -61 -4 -67 -12
-3 -20 -14 -20 -26 0 -11 9 -25 20 -31 23 -12 27 -40 5 -40 -8 0 -34 20 -58
44 -34 35 -52 46 -90 51 -54 8 -85 38 -65 63 8 9 22 12 42 7 82 -16 95 -17
118 -1 28 20 33 20 52 0z"/>
<path d="M1850 6225 c-12 -14 -11 -24 6 -90 3 -11 -2 -29 -10 -40 -19 -25 -45
-12 -65 33 -15 34 -36 40 -64 19 -12 -8 -18 -29 -20 -70 -2 -36 -9 -63 -19
-73 -14 -14 -15 -22 -4 -58 7 -22 11 -56 8 -75 -2 -19 -1 -49 3 -67 5 -28 11
-34 40 -40 44 -8 48 -15 46 -80 -1 -29 3 -56 9 -59 17 -10 39 14 51 55 11 36
10 41 -20 81 -17 24 -31 48 -31 54 0 6 11 26 24 44 30 41 21 70 -30 94 -36 17
-45 43 -19 54 9 3 38 1 65 -4 91 -18 165 40 115 91 -22 22 -18 36 10 36 30 0
75 41 75 68 0 37 -51 57 -78 30 -10 -10 -17 -10 -32 0 -26 16 -45 15 -60 -3z
m48 -7 c9 -9 20 -9 47 1 36 13 65 4 65 -21 0 -19 -50 -58 -74 -58 -32 0 -37
-19 -14 -51 38 -51 -6 -80 -117 -77 l-70 3 0 -30 c0 -25 6 -33 38 -47 42 -20
46 -38 17 -75 -27 -35 -25 -55 11 -106 30 -42 30 -45 16 -79 -25 -60 -38 -56
-35 11 3 66 -4 79 -48 87 -16 3 -31 8 -34 10 -3 3 -5 33 -6 67 0 34 -4 77 -8
94 -5 23 -3 39 8 55 10 13 16 43 16 75 0 42 4 54 20 63 24 13 40 5 40 -19 0
-29 35 -54 64 -47 32 8 43 47 27 93 -10 27 -10 37 -1 48 15 18 22 19 38 3z"/>
<path d="M5040 6215 c-5 -14 -16 -25 -24 -25 -26 0 -35 -23 -21 -50 8 -14 14
-37 15 -52 0 -54 49 -40 74 22 20 51 20 79 0 108 -20 29 -32 28 -44 -3z m50
-44 c-1 -29 -39 -101 -53 -101 -9 0 -17 13 -20 33 -3 17 -8 42 -12 54 -6 17
-3 22 17 25 16 2 24 11 27 28 l3 25 19 -24 c10 -13 19 -31 19 -40z"/>
<path d="M4894 6150 c-18 -7 -22 -19 -27 -67 -5 -63 8 -106 35 -111 9 -2 22 6
28 17 7 14 7 21 0 21 -5 0 -10 -6 -10 -14 0 -9 -7 -12 -20 -9 -18 5 -27 31
-19 58 1 6 2 27 0 48 -2 42 13 53 54 43 28 -7 35 -45 11 -65 -16 -13 -28 -51
-16 -51 4 0 11 8 14 18 3 9 13 28 21 42 12 20 12 28 2 44 -17 25 -47 35 -73
26z"/>
<path d="M4738 6139 c-13 -7 -18 -23 -18 -57 0 -55 -15 -88 -51 -115 -27 -19
-27 -19 -89 2 -34 12 -70 19 -80 16 -27 -9 -32 -33 -10 -55 14 -14 27 -18 54
-13 46 7 67 -10 64 -52 -2 -37 17 -71 70 -120 63 -60 115 -55 112 9 -3 56 0
64 33 85 46 28 58 58 41 99 -7 18 -17 32 -22 32 -5 0 -9 32 -9 70 0 54 -5 75
-18 90 -20 22 -50 25 -77 9z m66 -18 c13 -14 18 -36 17 -82 0 -47 5 -68 20
-87 31 -39 25 -68 -21 -98 -44 -29 -52 -46 -44 -88 5 -29 -9 -56 -30 -56 -6 0
-37 25 -69 56 -52 51 -57 60 -57 99 0 52 -12 63 -75 67 -42 3 -50 6 -50 23 0
23 14 23 93 -2 47 -16 56 -16 80 -3 35 20 62 69 64 116 2 71 35 96 72 55z"/>
<path d="M5147 6053 c-12 -12 -7 -34 13 -63 18 -25 19 -38 14 -102 -8 -77 -20
-97 -60 -98 -12 0 -36 13 -54 30 -26 25 -35 28 -52 19 -11 -6 -36 -8 -58 -4
-50 8 -80 -18 -80 -70 0 -20 -9 -54 -21 -77 -25 -48 -27 -104 -6 -125 11 -11
34 -15 78 -14 94 2 124 -37 79 -104 -24 -36 -26 -88 -4 -106 9 -7 35 -12 57
-12 67 3 79 -21 55 -110 -13 -49 -2 -94 26 -111 14 -9 20 -7 30 8 6 10 26 38
44 61 17 24 32 51 32 60 0 9 -16 30 -35 48 -27 25 -36 43 -41 79 -8 58 4 76
46 70 25 -4 31 0 41 24 6 16 8 46 6 67 -7 49 1 75 24 82 11 4 27 17 35 31 15
22 15 26 0 49 -10 15 -26 25 -41 25 -26 0 -55 24 -55 46 0 8 11 37 25 64 32
62 32 108 0 170 -30 59 -74 87 -98 63z m56 -21 c22 -25 57 -103 57 -130 0 -12
-11 -45 -25 -72 -14 -27 -25 -59 -25 -71 0 -29 28 -59 55 -59 44 0 65 -62 25
-75 -33 -11 -51 -47 -46 -96 2 -24 0 -54 -5 -67 -8 -20 -14 -23 -38 -17 -23 5
-32 2 -40 -14 -27 -50 -5 -133 43 -165 33 -21 33 -33 -2 -76 -16 -19 -35 -46
-41 -59 -11 -20 -15 -22 -27 -9 -20 20 -24 66 -10 103 14 35 12 81 -5 101 -7
8 -30 14 -58 14 -72 0 -90 33 -53 95 31 50 33 73 8 102 -20 23 -30 26 -87 25
-35 0 -70 4 -76 10 -19 16 -16 68 7 111 11 20 20 53 20 72 0 22 8 43 20 55 22
22 25 22 55 11 11 -5 33 -4 48 2 25 8 32 6 53 -17 34 -36 75 -38 108 -6 12 12
20 36 22 72 6 88 5 97 -17 127 -32 44 -2 73 34 33z"/>
<path d="M5002 6008 c-7 -7 -12 -22 -12 -33 0 -12 -11 -32 -25 -45 -29 -27
-31 -42 -10 -60 11 -9 27 -10 58 -3 35 7 46 6 69 -11 37 -26 58 -9 58 48 0 50
-12 67 -63 95 -43 24 -58 26 -75 9z m68 -19 c55 -29 74 -72 54 -123 -6 -15 -9
-14 -38 2 -33 20 -34 20 -84 8 -50 -12 -61 6 -28 44 14 17 26 39 26 49 0 14
17 41 27 41 1 0 21 -10 43 -21z"/>
<path d="M4262 5924 c-27 -18 -28 -45 -4 -67 12 -11 34 -15 79 -14 34 2 65 6
68 9 14 13 -18 50 -58 69 -51 23 -57 23 -85 3z m115 -37 c13 -11 21 -22 19
-24 -2 -3 -29 -6 -60 -8 -53 -3 -86 10 -86 33 1 45 77 45 127 -1z"/>
<path d="M4131 5902 c-11 -21 0 -45 43 -88 17 -18 41 -46 54 -63 22 -30 27
-31 94 -31 65 0 71 -2 101 -32 18 -18 52 -44 76 -58 24 -14 48 -32 51 -40 4
-8 13 -27 20 -42 7 -15 25 -32 41 -38 15 -7 35 -20 45 -31 19 -22 50 -25 57
-6 6 17 -11 47 -44 77 -15 14 -30 40 -34 58 -7 36 -106 131 -174 168 -34 19
-46 20 -92 12 -75 -14 -95 -6 -124 51 -13 27 -31 56 -40 65 -22 21 -62 20 -74
-2z m64 -8 c9 -9 27 -38 40 -64 14 -27 34 -51 45 -55 12 -4 51 -4 88 0 62 6
70 4 107 -21 69 -46 144 -125 151 -158 3 -17 22 -45 40 -62 51 -48 44 -88 -7
-43 -13 11 -36 27 -51 35 -16 8 -29 25 -33 43 -7 33 -25 51 -75 76 -19 10 -49
33 -66 51 -32 35 -46 38 -129 35 -47 -2 -54 2 -86 51 -14 21 -37 47 -52 58
-36 28 -36 70 -1 70 7 0 20 -7 29 -16z"/>
<path d="M5293 5573 c-13 -32 -13 -45 -2 -93 18 -75 19 -211 3 -231 -13 -15
-22 -46 -23 -82 -1 -10 -15 -33 -33 -50 -68 -68 -89 -145 -49 -181 24 -22 39
-5 47 58 7 45 8 47 33 41 54 -14 71 -8 86 27 11 28 11 37 -1 60 -17 34 -18 31
6 58 11 13 25 40 30 61 9 32 8 43 -6 64 -16 24 -16 29 -1 59 15 33 14 50 -19
224 -3 16 -11 22 -30 22 -19 0 -28 -8 -41 -37z m68 -33 c3 -30 10 -76 14 -101
5 -34 3 -54 -8 -76 -14 -27 -14 -32 3 -57 14 -23 16 -35 8 -65 -5 -20 -19 -46
-31 -58 -18 -21 -19 -26 -8 -61 22 -65 -14 -102 -69 -72 -28 15 -47 -18 -49
-87 -1 -31 -29 -29 -37 2 -9 35 21 110 52 130 28 18 54 71 54 108 0 14 7 30
14 37 12 9 14 34 12 118 -2 59 -9 121 -15 138 -16 41 8 107 36 102 14 -2 19
-17 24 -58z"/>
<path d="M1639 5496 c-48 -28 -80 -54 -88 -73 -23 -48 -26 -173 -6 -258 21
-88 43 -121 85 -130 17 -4 45 -20 63 -36 32 -30 44 -34 63 -21 21 14 22 41 3
78 -10 21 -21 63 -24 93 -6 62 -18 80 -58 83 -37 3 -47 16 -54 74 -6 51 11 76
45 67 28 -7 50 19 70 82 31 101 15 107 -99 41z m101 23 c0 -6 -7 -36 -16 -66
-11 -38 -22 -57 -37 -62 -12 -5 -25 -7 -29 -4 -4 2 -17 -1 -29 -7 -19 -11 -21
-19 -17 -71 5 -67 12 -78 59 -88 34 -7 62 -42 52 -65 -7 -18 -101 -76 -122
-76 -42 0 -75 207 -49 308 11 45 30 63 122 113 56 32 66 34 66 18z m20 -509
c0 -31 -28 -31 -62 1 -18 17 -45 33 -61 36 -29 6 -47 23 -24 23 8 0 34 13 58
30 l44 29 23 -51 c12 -28 22 -59 22 -68z"/>
<path d="M4723 5397 c-30 -13 -31 -62 -3 -92 16 -17 18 -27 12 -45 -5 -13 -5
-40 -1 -60 13 -52 11 -80 -5 -80 -21 0 -33 48 -29 116 4 58 3 62 -27 87 -70
59 -109 19 -66 -66 18 -35 23 -55 17 -70 -15 -41 1 -97 45 -155 30 -39 34 -52
34 -102 0 -62 22 -97 50 -80 16 10 20 77 8 121 -6 21 -2 34 21 63 28 35 28 37
16 89 -11 46 -10 60 3 93 38 98 -9 212 -75 181z m49 -24 c18 -21 37 -76 34
-95 -1 -7 -8 -24 -15 -37 -15 -28 -18 -80 -7 -136 7 -35 4 -44 -18 -70 -29
-34 -30 -37 -16 -85 12 -42 4 -90 -15 -90 -13 0 -29 51 -25 75 7 34 -5 68 -37
110 -36 45 -38 53 -39 121 -1 52 -7 81 -21 106 -20 33 -20 68 -1 68 20 0 68
-35 74 -53 3 -11 3 -39 -1 -63 -7 -49 8 -109 30 -118 17 -6 36 16 35 41 0 10
-1 48 -3 84 -1 49 -7 72 -21 88 -13 14 -16 28 -12 46 8 29 36 33 58 8z"/>
<path d="M4623 4980 c-18 -27 -16 -39 8 -80 18 -29 23 -32 33 -19 6 9 11 38
11 65 0 41 -3 49 -20 52 -12 1 -25 -6 -32 -18z m40 3 c3 -5 1 -28 -2 -53 l-7
-45 -17 32 c-14 27 -15 36 -5 53 13 21 24 25 31 13z"/>
<path d="M4829 4978 c0 -1 -2 -14 -4 -28 -6 -46 -22 -96 -39 -122 -10 -15 -16
-35 -14 -45 1 -10 -7 -31 -19 -47 -18 -22 -20 -32 -12 -54 23 -61 51 -61 65 1
3 18 15 40 26 50 14 14 19 31 18 65 -1 26 4 61 11 78 14 35 3 94 -19 102 -6 2
-12 2 -13 0z m17 -103 c-9 -22 -13 -56 -11 -77 3 -23 0 -42 -8 -50 -21 -21
-37 -55 -37 -78 0 -29 -22 -20 -34 13 -8 21 -6 31 9 47 11 12 20 32 20 45 1
14 9 39 18 57 9 18 22 54 29 81 11 42 13 45 21 25 5 -15 3 -37 -7 -63z"/>
<path d="M1646 4922 c-23 -5 -117 -65 -134 -85 -13 -15 -28 -89 -35 -172 -4
-49 8 -105 23 -105 4 0 13 -14 20 -30 10 -24 10 -46 1 -101 -9 -57 -9 -75 3
-104 8 -19 21 -35 29 -35 18 0 128 65 139 82 4 7 8 41 8 76 0 35 5 72 11 84
18 33 2 64 -51 103 -44 32 -50 41 -50 73 0 21 -4 44 -9 51 -15 23 5 50 50 67
46 19 64 45 50 73 -12 22 -29 29 -55 23z m42 -39 c3 -19 -8 -28 -64 -55 -78
-38 -101 -66 -109 -126 -4 -36 -1 -47 20 -68 14 -14 30 -22 36 -19 5 4 21 4
35 1 36 -9 33 -50 -5 -66 -51 -21 -51 -64 0 -75 16 -4 29 -12 30 -18 2 -24 7
-53 14 -79 6 -22 3 -29 -11 -35 -11 -3 -32 -15 -48 -26 -28 -20 -29 -20 -42
-2 -8 10 -15 25 -15 32 -1 7 -2 19 -3 26 -1 6 2 26 6 42 17 61 12 102 -20 150
-17 26 -29 52 -27 58 2 7 6 45 10 85 3 40 10 85 16 99 10 26 46 62 64 63 6 0
21 9 35 20 33 26 74 22 78 -7z m-101 -100 c5 -90 14 -119 40 -138 14 -11 40
-31 56 -45 29 -26 29 -26 15 -69 -8 -24 -13 -59 -11 -79 5 -43 -3 -82 -17 -82
-10 0 -23 41 -24 75 -1 12 -13 26 -33 35 -46 21 -47 34 -5 62 28 18 36 30 34
48 -3 29 -18 40 -57 40 -40 0 -53 10 -55 40 -4 50 1 69 26 99 30 36 29 36 31
14z"/>
<path d="M1995 4866 c-18 -13 -19 -18 -7 -60 17 -65 15 -79 -13 -106 -14 -13
-25 -34 -25 -47 0 -13 11 -34 25 -47 44 -41 27 -126 -24 -126 -39 0 -49 -29
-50 -147 -2 -102 0 -114 19 -133 41 -41 73 -9 84 85 3 28 7 59 10 70 3 11 7
32 10 47 8 34 42 47 61 21 8 -10 11 -30 8 -46 -4 -20 1 -37 16 -57 16 -22 21
-44 21 -89 0 -63 -4 -70 -56 -100 -20 -13 -34 -32 -43 -60 -11 -37 -10 -45 7
-74 25 -41 35 -84 22 -92 -20 -12 -40 17 -40 59 0 50 -11 69 -36 64 -15 -3
-21 -16 -27 -68 -4 -36 -6 -74 -3 -85 9 -34 45 -65 76 -65 38 0 60 -24 60 -66
0 -25 9 -43 31 -67 18 -17 38 -46 45 -64 7 -17 24 -40 38 -50 13 -10 33 -37
44 -59 11 -22 33 -51 50 -64 32 -27 72 -94 72 -121 0 -19 -20 -29 -55 -29 -13
0 -27 -4 -30 -10 -9 -14 20 -115 43 -147 10 -15 23 -39 27 -53 4 -14 14 -33
23 -42 29 -34 56 17 32 62 -7 13 -7 21 0 25 19 12 10 47 -20 75 -17 15 -30 33
-30 39 0 6 18 18 40 27 43 17 44 22 40 107 -1 33 4 44 40 77 31 28 53 40 88
45 58 8 102 37 136 89 31 48 33 79 6 137 -27 60 -25 71 14 118 18 22 37 57 40
78 4 21 9 46 12 56 3 9 1 17 -4 17 -5 0 -12 -22 -16 -49 -4 -34 -17 -62 -41
-92 -40 -50 -43 -76 -15 -138 26 -55 25 -65 -5 -117 -27 -45 -79 -84 -114 -84
-33 0 -83 -24 -118 -58 -31 -28 -33 -35 -33 -95 l0 -65 -40 -16 c-32 -13 -40
-21 -40 -41 0 -17 8 -29 24 -37 31 -14 38 -31 26 -64 -7 -17 -6 -32 1 -45 11
-22 6 -49 -10 -49 -5 0 -15 17 -21 38 -7 20 -19 44 -26 53 -18 20 -55 129 -48
140 3 5 18 9 33 9 15 0 35 8 45 19 15 17 15 21 -8 71 -16 35 -22 60 -17 74 13
37 1 65 -36 85 -31 16 -29 38 6 55 52 27 58 89 13 129 -16 15 -32 18 -74 14
-60 -5 -88 5 -88 31 0 31 20 41 69 36 59 -6 84 12 84 61 0 51 -24 67 -94 59
-43 -4 -58 -2 -68 10 -19 22 3 46 41 46 41 0 88 48 88 90 0 73 -61 122 -126
102 -19 -5 -32 -6 -29 -1 3 4 6 38 6 73 1 52 -4 71 -21 93 -15 19 -19 34 -14
56 11 50 -44 88 -78 53 -13 -12 -24 -63 -43 -187 -8 -51 -28 -66 -53 -41 -17
17 -20 33 -18 131 1 116 6 130 47 131 53 0 71 109 24 143 -32 24 -32 47 0 77
l25 23 0 -36 c0 -49 16 -87 37 -87 11 0 29 19 46 45 28 47 35 85 16 85 -5 0
-7 -5 -4 -10 7 -12 -30 -91 -49 -102 -20 -13 -24 -9 -31 38 -6 41 -4 49 19 73
14 15 27 42 29 61 5 37 -9 90 -23 90 -5 0 -14 2 -22 5 -7 3 -22 -1 -33 -9z
m60 -27 c14 -44 8 -81 -18 -106 l-26 -26 1 29 c1 17 -5 47 -12 69 -11 34 -11
40 5 51 21 16 42 8 50 -17z m176 -696 c41 -24 56 -70 38 -115 -8 -21 -22 -31
-53 -39 -60 -16 -71 -24 -71 -50 0 -33 36 -49 86 -38 55 13 79 -2 79 -46 0
-42 -22 -57 -73 -48 -25 4 -44 0 -62 -11 -31 -20 -31 -35 -4 -65 19 -20 27
-22 78 -16 48 5 59 3 79 -15 35 -33 30 -76 -13 -101 -46 -27 -48 -62 -5 -84
23 -12 30 -23 30 -44 0 -15 -3 -31 -7 -35 -9 -8 -73 54 -73 71 0 7 -18 33 -40
57 -22 24 -40 48 -40 55 0 6 -16 29 -36 50 -23 26 -37 53 -40 78 -6 45 -29 73
-60 73 -57 0 -91 47 -78 109 4 20 6 46 5 58 -3 26 18 41 30 22 5 -8 9 -33 9
-56 0 -32 5 -46 22 -57 19 -13 25 -14 36 -2 16 16 7 80 -15 102 -19 19 -20 52
-2 90 11 22 29 34 74 51 74 27 71 27 106 6z"/>
<path d="M4646 4823 c-20 -21 -36 -41 -36 -45 0 -4 14 -14 30 -23 17 -9 30
-20 30 -26 0 -21 42 -3 60 26 16 25 17 34 7 54 -7 13 -22 30 -33 38 -20 13
-25 11 -58 -24z m68 1 c21 -21 20 -47 -2 -74 l-19 -23 -20 20 c-11 11 -27 23
-34 25 -10 3 -7 12 11 36 28 35 42 39 64 16z"/>
<path d="M1889 4840 c-3 -49 0 -110 5 -119 12 -19 43 -12 50 12 9 34 7 76 -4
98 -11 20 -49 27 -51 9z m40 -18 c5 -9 8 -33 6 -52 -2 -19 -4 -38 -4 -42 -1
-5 -7 -8 -15 -8 -10 0 -14 15 -14 60 0 60 9 75 27 42z"/>
<path d="M4557 4763 c-4 -3 -7 -19 -7 -35 0 -45 -26 -98 -48 -98 -29 0 -49
-30 -58 -85 -4 -31 -14 -55 -25 -63 -27 -18 -24 -68 4 -93 47 -44 127 -89 154
-88 47 2 78 14 75 31 -2 11 4 14 23 10 17 -3 25 0 26 9 0 8 2 24 5 36 8 43
-87 87 -103 47 -3 -9 5 -26 21 -43 29 -30 36 -53 9 -28 -10 8 -30 18 -45 22
-35 9 -51 29 -43 54 7 23 43 33 147 40 4 1 15 12 24 26 15 23 15 27 0 50 -9
14 -26 25 -37 25 -11 0 -30 5 -41 11 l-21 11 21 17 c29 23 38 65 17 82 -10 8
-29 26 -43 42 -26 27 -43 33 -55 20z m82 -65 c24 -20 19 -44 -13 -70 -17 -14
-19 -21 -10 -35 6 -10 20 -19 30 -21 56 -8 64 -13 64 -36 0 -34 -19 -45 -86
-52 -64 -6 -94 -25 -94 -59 0 -28 15 -41 65 -57 56 -18 58 -43 5 -52 -37 -6
-48 -2 -102 34 -33 22 -64 40 -68 40 -5 0 -12 14 -15 32 -6 25 -3 35 13 48 12
10 22 35 27 67 7 53 23 76 62 87 23 7 43 52 43 96 0 38 11 44 36 18 12 -13 31
-31 43 -40z m26 -270 c19 -9 25 -19 25 -45 0 -18 -3 -33 -6 -33 -12 0 -73 73
-68 82 7 11 18 10 49 -4z"/>
<path d="M5166 4735 c-11 -8 -30 -15 -42 -15 -34 0 -49 -25 -35 -58 10 -20 10
-27 1 -30 -7 -3 -21 -13 -31 -23 -14 -14 -17 -24 -9 -43 6 -18 5 -28 -6 -36
-7 -7 -14 -19 -14 -26 0 -8 -6 -14 -14 -14 -14 0 -26 21 -26 46 0 26 -58 72
-85 67 -39 -8 -49 -29 -47 -100 1 -57 -1 -67 -23 -87 -33 -31 -42 -76 -20
-109 35 -55 -10 -95 -77 -69 -34 13 -40 13 -63 -2 -14 -9 -31 -28 -37 -42 -9
-18 -19 -24 -42 -24 -17 0 -58 -1 -90 -3 -50 -3 -63 -8 -83 -32 -18 -21 -24
-36 -20 -59 4 -25 -2 -39 -29 -68 -18 -20 -31 -44 -29 -55 2 -10 4 -21 4 -25
1 -5 18 -26 38 -49 29 -32 34 -42 23 -49 -9 -6 -29 0 -57 16 -70 42 -96 20
-99 -81 0 -27 -4 -69 -9 -93 -7 -38 -5 -44 19 -63 14 -11 26 -27 26 -34 0 -7
12 -27 26 -44 26 -31 57 -40 69 -21 3 6 18 10 32 10 17 0 40 16 74 53 51 55
59 56 33 4 -24 -47 -53 -75 -85 -82 -16 -4 -30 -11 -30 -16 -1 -5 -2 -14 -3
-20 -1 -14 67 -63 132 -94 61 -29 75 -31 92 -10 7 8 22 15 35 15 30 0 51 26
75 95 25 73 33 82 95 110 55 24 69 38 108 106 33 57 112 146 138 154 31 10 52
71 51 151 -1 60 2 74 19 90 34 30 39 57 23 115 -18 71 -18 76 9 83 26 6 36 24
66 117 30 92 28 118 -8 130 -26 9 -29 15 -33 66 -3 31 0 68 5 83 12 31 2 80
-16 80 -6 0 -21 -7 -31 -15z m42 -34 c2 -12 -1 -28 -7 -35 -7 -8 -8 -38 -4
-79 5 -61 8 -67 34 -76 34 -12 38 -44 13 -93 -9 -17 -18 -45 -21 -62 -7 -46
-21 -65 -49 -72 -28 -7 -28 0 -8 -127 5 -33 2 -43 -21 -67 -25 -26 -35 -75
-24 -116 5 -17 -12 -87 -28 -110 -8 -13 -21 -24 -29 -24 -18 0 -121 -124 -147
-179 -19 -37 -32 -49 -88 -75 l-66 -32 -1 28 c-1 28 -30 85 -58 113 -8 8 -34
19 -57 26 -23 6 -53 17 -66 26 -13 8 -46 23 -75 33 -41 15 -45 19 -24 19 18 1
33 10 44 26 9 13 24 27 35 30 10 4 19 14 19 24 0 23 -35 94 -54 111 -21 17
-20 47 2 54 9 3 34 5 55 4 26 0 46 7 61 21 l22 21 36 -40 c30 -34 41 -40 75
-40 49 0 93 31 93 65 0 44 20 71 63 86 35 12 44 21 56 55 13 38 13 44 -5 75
-11 19 -34 43 -51 54 -37 23 -54 61 -42 93 12 31 26 27 39 -12 13 -39 45 -57
79 -44 16 5 28 5 35 -2 15 -15 52 -12 70 6 20 19 20 73 1 98 -23 30 -18 46 15
53 40 8 44 16 42 92 -1 36 1 73 4 84 8 24 28 17 32 -12z m-52 -68 c-1 -73 -2
-77 -25 -83 -40 -9 -49 -34 -27 -75 26 -47 13 -92 -24 -87 -14 2 -47 3 -73 3
-46 0 -49 2 -63 35 -25 60 -58 58 -70 -4 -6 -30 -2 -37 44 -80 68 -64 76 -82
58 -127 -11 -27 -23 -37 -46 -41 -37 -8 -70 -47 -70 -85 0 -35 -41 -69 -83
-69 -22 0 -40 10 -67 40 -42 46 -50 48 -75 20 -13 -15 -31 -20 -65 -20 -33 0
-52 -6 -64 -19 -16 -17 -13 -51 5 -51 8 0 59 -94 59 -110 0 -5 -9 -12 -21 -15
-11 -4 -25 -18 -31 -31 -6 -13 -20 -24 -30 -24 -26 0 -58 18 -58 33 0 7 -16
27 -35 46 -46 43 -47 80 -4 118 25 23 29 33 24 59 -4 25 0 38 20 62 22 27 29
29 60 22 21 -5 38 -4 41 2 3 5 25 8 47 6 37 -3 43 0 62 29 29 45 56 56 99 38
69 -29 119 24 82 86 -20 34 -14 63 20 99 24 26 26 39 23 113 -1 43 14 67 44
67 22 0 67 -43 67 -65 0 -29 13 -45 36 -45 14 0 24 6 24 14 0 7 7 19 15 26 11
9 14 22 9 46 -5 29 -3 35 20 45 27 13 33 33 16 59 -12 19 6 40 34 40 21 0 22
-4 22 -77z m-753 -820 c7 2 25 -7 40 -19 16 -13 34 -24 40 -25 28 -2 46 -8 93
-33 27 -14 54 -26 61 -26 48 0 113 -79 113 -137 0 -32 -29 -139 -46 -166 -5
-9 -20 -19 -33 -22 -13 -2 -34 -11 -47 -20 -22 -14 -28 -14 -67 3 -47 21 -150
92 -144 99 3 2 24 14 48 26 29 14 52 36 66 62 47 83 17 102 -45 29 -26 -30
-49 -48 -66 -49 -15 -2 -33 -8 -40 -14 -21 -18 -43 -3 -67 45 -11 24 -30 49
-40 55 -22 12 -24 32 -6 85 8 24 11 54 7 78 -6 31 -3 43 12 58 19 19 20 19 64
-7 25 -15 50 -24 57 -22z"/>
<path d="M4444 3992 c-10 -12 -29 -22 -41 -22 -32 0 -30 -33 2 -48 13 -6 31
-25 40 -42 10 -20 22 -30 33 -28 25 5 26 111 2 140 l-17 22 -19 -22z m37 -14
c0 -7 1 -35 2 -61 3 -59 -7 -68 -28 -27 -9 17 -27 36 -40 42 -27 12 -35 34
-10 24 9 -3 23 3 32 14 20 22 43 26 44 8z"/>
<path d="M5479 4714 c-25 -24 -46 -36 -65 -36 -53 -1 -71 -7 -82 -33 -8 -17
-8 -33 -2 -51 14 -37 12 -95 -5 -144 -8 -23 -15 -62 -15 -86 0 -36 -5 -46 -31
-65 -38 -27 -49 -54 -37 -95 6 -22 4 -42 -7 -68 -14 -32 -14 -37 -1 -42 8 -3
20 -3 26 1 20 12 50 84 50 119 0 29 5 38 28 50 28 15 48 45 54 81 2 12 19 27
40 37 46 22 62 50 55 95 -5 29 -3 35 18 43 13 5 33 26 44 47 10 21 36 53 56
70 21 19 35 40 33 50 -3 17 -80 63 -107 63 -9 0 -33 -16 -52 -36z m102 4 c27
-13 49 -28 49 -35 0 -7 -16 -24 -36 -39 -19 -15 -44 -45 -55 -66 -11 -22 -31
-43 -46 -49 -22 -8 -25 -14 -19 -39 8 -44 -9 -79 -49 -95 -27 -12 -37 -24 -46
-56 -8 -25 -24 -48 -43 -61 -17 -12 -33 -23 -34 -24 -2 -2 -5 -20 -6 -41 -3
-39 -27 -96 -47 -109 -9 -5 -10 1 -4 22 5 16 9 56 9 88 1 42 5 61 15 64 8 3
25 15 37 28 18 17 22 30 18 56 -3 19 3 56 14 88 18 54 19 119 2 150 -5 8 -2
26 6 43 13 24 19 27 44 22 34 -8 81 14 107 50 22 30 24 30 84 3z"/>
<path d="M2855 4553 c9 -21 24 -47 34 -58 10 -11 26 -35 35 -53 9 -18 32 -42
51 -55 19 -12 37 -33 40 -48 3 -14 20 -39 37 -55 41 -39 49 -63 31 -97 -10
-20 -12 -44 -7 -85 5 -47 3 -60 -11 -72 -14 -12 -18 -12 -26 1 -5 8 -9 20 -9
27 0 9 -10 12 -27 10 -28 -3 -34 -14 -48 -80 -3 -15 -15 -37 -27 -48 -14 -13
-24 -37 -28 -68 -4 -41 -9 -49 -39 -64 -44 -22 -54 -39 -46 -85 7 -49 18 -59
48 -46 17 8 27 23 31 47 7 38 25 46 46 21 17 -20 43 -19 64 4 9 10 38 22 62
26 37 5 55 16 94 55 27 27 62 56 79 65 31 16 35 22 32 62 -3 31 14 36 51 13
43 -26 81 -25 143 4 34 16 70 24 117 25 62 2 72 -1 114 -30 l47 -32 53 18 c33
11 64 15 86 11 21 -4 40 -1 51 6 17 13 34 88 20 88 -4 0 -9 -14 -10 -32 -3
-44 -15 -52 -71 -49 -26 1 -65 -5 -86 -14 -39 -17 -39 -16 -84 15 -42 29 -52
32 -119 31 -51 -1 -86 -7 -111 -20 -65 -33 -97 -35 -141 -10 -50 28 -69 21
-73 -28 -2 -27 -9 -41 -25 -49 -12 -6 -46 -33 -76 -61 -42 -40 -62 -51 -99
-57 -25 -4 -53 -15 -63 -26 -18 -19 -19 -19 -49 -1 -41 24 -55 18 -62 -30 -4
-23 -12 -39 -20 -39 -8 0 -17 -1 -21 -2 -4 -2 -10 10 -14 25 -9 34 5 77 25 77
30 0 58 35 58 73 0 26 9 48 29 73 16 20 29 48 29 61 0 56 42 86 54 38 4 -15
13 -25 25 -25 33 0 44 26 39 88 -4 38 -1 66 8 84 19 37 9 74 -27 101 -16 11
-34 37 -40 57 -7 22 -22 42 -40 53 -16 9 -37 31 -47 48 -9 18 -25 40 -34 50
-21 23 -51 79 -45 86 14 14 96 -26 141 -69 33 -31 65 -52 91 -58 22 -6 61 -17
86 -26 43 -14 50 -14 102 4 l56 19 53 -23 c29 -13 63 -23 74 -24 28 0 71 -34
90 -71 22 -43 48 -49 116 -26 58 20 59 20 114 1 43 -14 60 -26 71 -49 8 -16
29 -44 45 -62 22 -22 32 -44 35 -77 3 -25 9 -46 13 -46 4 0 6 11 5 24 -7 57
-18 85 -45 111 -16 15 -34 40 -40 55 -9 21 -27 35 -67 51 -50 20 -60 21 -107
10 -107 -25 -103 -25 -122 5 -31 51 -56 73 -88 80 -17 3 -57 17 -88 30 l-56
24 -58 -19 c-55 -17 -60 -17 -113 0 -31 10 -68 20 -84 24 -15 3 -49 27 -75 53
-46 46 -101 72 -151 72 -21 0 -21 -1 -6 -37z"/>
<path d="M1410 4434 c-24 -55 -24 -63 -6 -90 14 -19 23 -56 25 -96 1 -25 36
-41 61 -28 33 18 36 56 7 98 -42 63 -45 72 -34 103 8 21 8 31 -2 43 -21 25
-30 19 -51 -30z m45 16 c3 -5 1 -18 -5 -29 -12 -24 -1 -59 37 -113 24 -36 25
-39 9 -63 -14 -21 -20 -24 -36 -15 -11 6 -20 16 -21 23 -2 44 -11 81 -24 100
-13 21 -13 28 2 65 16 42 26 51 38 32z"/>
<path d="M4296 4438 c-70 -22 -68 -20 -72 -54 -1 -14 -12 -33 -23 -41 -12 -8
-21 -21 -21 -29 0 -27 29 -26 65 2 l36 27 50 -17 c39 -15 52 -16 64 -6 20 16
19 30 -5 60 -11 14 -20 35 -20 47 0 31 -8 32 -74 11z m64 -18 c0 -12 10 -34
22 -51 29 -38 11 -54 -38 -33 -48 20 -73 17 -111 -12 -43 -33 -55 -23 -19 15
15 16 26 37 24 47 -2 15 8 23 47 36 66 22 75 22 75 -2z"/>
<path d="M1730 4323 c-18 -50 -26 -58 -66 -61 -50 -4 -60 -14 -68 -61 -3 -22
-17 -52 -30 -68 -37 -44 -41 -76 -18 -120 11 -21 23 -54 26 -74 4 -24 16 -43
36 -57 43 -32 63 -78 66 -147 1 -33 3 -68 3 -77 1 -10 14 -32 29 -49 26 -30
29 -30 45 -15 22 23 21 47 -3 89 l-21 35 27 32 c32 38 34 78 5 119 -22 30 -28
71 -12 71 5 0 26 16 47 35 36 34 36 35 20 61 -10 14 -33 42 -52 62 -47 50 -46
89 2 137 31 31 35 40 29 68 -10 43 -13 47 -36 47 -12 0 -23 -10 -29 -27z m51
-17 c6 -22 3 -33 -17 -53 -65 -65 -65 -102 0 -174 25 -28 46 -57 46 -64 0 -7
-20 -29 -44 -49 -48 -39 -51 -58 -14 -105 25 -33 23 -68 -7 -103 -29 -34 -30
-46 -11 -74 23 -32 24 -84 3 -84 -25 0 -47 56 -47 122 0 76 -25 136 -68 167
-22 15 -32 32 -37 64 -4 23 -14 50 -23 60 -23 26 -19 70 11 109 15 19 30 50
33 69 9 48 23 62 54 55 27 -5 70 16 70 34 0 5 5 21 10 35 12 33 31 28 41 -9z"/>
<path d="M5432 4328 c-14 -14 -16 -58 -3 -58 5 0 7 8 4 18 -2 10 3 24 11 31
21 18 46 7 39 -17 -2 -11 0 -29 6 -39 6 -13 7 -32 1 -54 -5 -19 -12 -46 -15
-60 -3 -17 -18 -35 -38 -47 -24 -14 -36 -30 -41 -52 -12 -61 -47 -78 -81 -40
-23 26 -43 25 -65 -2 -15 -19 -20 -21 -34 -9 -9 8 -16 24 -14 35 2 17 10 21
44 21 61 0 93 33 103 110 5 34 10 41 35 45 28 5 71 50 47 50 -6 0 -11 -7 -11
-15 0 -8 -14 -17 -35 -21 -35 -6 -39 -12 -50 -76 -10 -51 -44 -81 -97 -82 -41
-1 -43 -3 -46 -33 -2 -23 3 -35 20 -47 22 -16 24 -15 45 11 l22 27 24 -22 c45
-42 107 -16 107 45 0 15 13 31 40 49 29 19 40 34 41 53 0 14 3 35 6 46 5 21 6
58 1 110 -2 24 -8 31 -28 33 -14 2 -31 -3 -38 -10z"/>
<path d="M1987 4171 c-22 -25 -30 -28 -70 -24 -38 4 -47 2 -56 -16 -23 -42 32
-121 73 -105 16 6 20 16 17 46 -2 11 11 23 36 33 42 18 53 30 53 61 0 34 -25
36 -53 5z m43 -3 c0 -23 -15 -37 -53 -53 -31 -13 -37 -20 -37 -46 0 -26 -3
-30 -22 -27 -14 2 -30 16 -40 37 -24 48 -9 65 48 56 37 -5 44 -3 61 19 19 27
43 34 43 14z"/>
<path d="M4186 4099 c-11 -7 -38 -9 -68 -5 -38 5 -56 3 -75 -9 -23 -15 -24
-21 -19 -71 4 -47 2 -57 -19 -82 -28 -33 -18 -52 25 -51 41 1 61 13 89 54 18
26 39 43 66 52 42 14 75 54 75 91 0 30 -38 41 -74 21z m54 -9 c12 -8 12 -13
-2 -44 -27 -55 -128 -77 -128 -28 0 11 -9 31 -20 45 l-20 26 53 -6 c32 -3 62
-1 73 5 23 14 25 14 44 2z m-140 -77 c0 -9 6 -21 14 -27 22 -17 -24 -82 -63
-91 -45 -10 -54 2 -29 35 17 24 20 37 14 76 -4 31 -2 52 6 62 10 12 16 10 35
-12 13 -15 23 -34 23 -43z"/>
<path d="M4115 3900 c-18 -28 -35 -42 -55 -47 -36 -7 -53 -25 -44 -47 7 -17
44 -17 136 0 38 8 64 64 46 102 -21 43 -52 40 -83 -8z m63 18 c16 -16 15 -60
-1 -82 -7 -10 -29 -19 -50 -21 -21 -2 -51 -6 -67 -10 -26 -6 -30 -4 -30 14 0
15 6 21 21 21 32 0 55 16 78 55 22 38 30 42 49 23z"/>
<path d="M1840 3900 c-12 -7 -12 -15 -2 -43 7 -18 12 -48 12 -65 0 -30 3 -32
33 -32 18 0 38 -5 44 -11 15 -15 53 -1 53 20 0 24 -31 51 -58 51 -16 0 -23 8
-28 35 -7 39 -32 59 -54 45z m38 -40 c5 -34 17 -47 51 -53 30 -6 48 -34 32
-50 -7 -7 -16 -6 -26 3 -9 7 -29 13 -44 12 -27 -1 -29 3 -33 41 -3 23 -8 50
-13 61 -6 14 -4 17 11 14 11 -2 20 -13 22 -28z"/>
<path d="M3573 3868 c-34 -47 -32 -101 5 -112 11 -4 36 -24 56 -46 20 -22 43
-40 50 -40 19 0 36 23 42 56 3 15 7 31 10 36 11 17 34 7 48 -20 16 -32 83 -72
117 -71 13 0 44 10 69 22 48 24 62 54 35 77 -8 7 -15 23 -15 36 0 43 -51 65
-140 59 -48 -3 -91 -13 -115 -25 -53 -27 -76 -25 -110 10 -32 33 -38 36 -52
18z m106 -58 c19 0 48 8 65 19 19 11 59 21 102 24 59 5 76 2 103 -14 19 -12
31 -27 31 -41 0 -12 7 -29 16 -39 9 -10 13 -22 10 -28 -7 -11 -88 -51 -105
-51 -28 0 -92 42 -106 71 -13 24 -22 30 -43 27 -21 -2 -29 -11 -37 -40 -17
-61 -29 -66 -67 -25 -18 19 -45 42 -60 52 -30 19 -35 40 -16 80 l11 26 32 -31
c22 -21 41 -30 64 -30z"/>
<path d="M3354 3846 c-4 -16 -17 -29 -37 -36 -18 -6 -42 -25 -55 -45 -14 -23
-30 -35 -45 -35 -31 0 -67 -27 -67 -50 0 -34 -25 -48 -79 -42 -65 6 -77 -5
-92 -79 -6 -32 -18 -64 -27 -71 -9 -8 -37 -11 -74 -10 -37 2 -65 -1 -74 -9
-32 -27 -47 -73 -46 -141 2 -58 -1 -69 -19 -82 -18 -12 -26 -13 -61 0 -28 10
-45 11 -59 4 -38 -21 -64 -189 -39 -254 7 -19 21 -28 54 -37 37 -9 47 -17 61
-49 22 -50 17 -72 -23 -92 -45 -22 -44 -20 -53 -78 -6 -38 -16 -58 -38 -80
-26 -23 -31 -36 -31 -74 0 -34 5 -48 19 -55 22 -12 32 -3 54 50 8 20 31 51 51
69 20 18 36 41 36 51 0 33 27 49 74 43 l43 -6 52 63 c63 78 69 98 47 160 -15
41 -16 52 -4 76 10 21 21 29 48 31 42 4 66 24 80 66 6 18 24 42 40 55 29 21
43 71 19 71 -5 0 -7 -5 -4 -10 11 -17 -4 -46 -29 -58 -14 -6 -29 -26 -37 -49
-14 -45 -32 -60 -71 -61 -60 -2 -81 -53 -52 -128 16 -41 16 -48 1 -77 -8 -18
-34 -54 -58 -80 -40 -46 -44 -48 -81 -42 -43 8 -78 -13 -78 -46 0 -9 -18 -34
-40 -56 -23 -21 -46 -55 -52 -76 -15 -50 -42 -47 -46 5 -3 31 3 43 32 74 21
22 36 49 37 64 2 61 4 65 51 88 19 10 34 26 36 38 3 19 6 20 41 11 100 -27
163 82 94 163 -24 29 -30 31 -87 30 -34 -1 -67 -2 -73 -1 -16 1 -17 43 -2 58
16 16 3 60 -21 73 -16 8 -28 8 -50 -3 -26 -14 -28 -13 -25 4 7 35 26 59 48 59
27 0 72 -22 72 -35 3 -55 50 -83 97 -59 31 16 31 16 25 79 -6 58 -4 64 14 70
14 5 28 0 42 -13 33 -30 64 -36 92 -18 50 33 21 126 -39 126 -33 0 -71 32 -63
53 4 10 17 17 29 17 43 0 64 25 77 89 15 74 28 86 88 77 50 -7 83 11 83 44 0
28 30 46 78 49 7 1 22 16 33 35 11 19 33 39 49 45 17 5 35 22 42 36 13 28 31
28 37 0 2 -12 -9 -29 -30 -45 -28 -24 -32 -34 -33 -76 -1 -29 -9 -62 -21 -81
-15 -26 -26 -33 -59 -35 -37 -3 -44 -8 -76 -59 -19 -31 -44 -68 -54 -83 -15
-21 -20 -48 -22 -107 -1 -43 1 -79 5 -79 4 0 7 33 7 73 0 69 2 77 42 138 67
103 73 110 90 108 46 -4 59 3 81 41 15 26 21 53 19 81 -2 36 2 45 31 68 26 21
32 33 29 56 -4 41 -44 48 -54 11z m-484 -400 c-11 -31 10 -51 71 -69 33 -10
46 -20 54 -40 20 -58 -34 -90 -86 -51 -37 27 -61 30 -82 10 -11 -12 -12 -24
-4 -64 13 -60 0 -82 -44 -82 -48 0 -66 58 -27 90 19 15 22 26 20 84 -1 46 3
77 14 99 20 39 31 47 66 47 25 0 27 -2 18 -24z m-189 -297 c7 -14 5 -27 -5
-47 -13 -26 -13 -31 1 -52 14 -20 21 -22 69 -16 73 8 100 -4 115 -53 15 -51
-1 -94 -41 -111 -42 -17 -80 -1 -113 48 -21 31 -38 44 -68 52 -46 13 -59 36
-59 106 0 37 6 51 29 75 31 31 54 30 72 -2z"/>
<path d="M4066 3745 c-9 -13 -16 -29 -16 -35 0 -5 -9 -15 -20 -22 -36 -23 -24
-44 40 -67 33 -12 65 -19 71 -15 7 4 8 23 4 53 -4 25 -8 55 -10 67 -5 50 -42
60 -69 19z m49 4 c4 -5 9 -29 11 -52 3 -23 7 -48 9 -55 10 -27 -6 -30 -57 -10
-66 25 -66 25 -40 44 12 8 22 21 22 27 0 16 29 57 40 57 5 0 12 -5 15 -11z"/>
<path d="M1815 3707 c-15 -44 -2 -93 26 -102 22 -7 49 10 49 31 0 7 9 15 19
19 27 8 42 30 35 48 -7 19 -123 22 -129 4z m119 -14 c3 -7 0 -13 -5 -13 -6 0
-27 -17 -46 -37 -33 -37 -35 -37 -49 -19 -13 18 -19 67 -10 77 11 11 106 4
110 -8z"/>
<path d="M3743 3689 c-13 -4 -23 -13 -23 -19 0 -14 39 -50 79 -73 29 -17 32
-17 38 -1 17 46 -48 111 -94 93z m66 -35 c20 -25 28 -54 16 -54 -21 0 -96 60
-89 71 11 18 53 8 73 -17z"/>
<path d="M3900 3593 c-14 -10 -36 -30 -48 -45 -21 -24 -31 -28 -77 -28 -60 0
-85 -17 -85 -56 0 -27 -12 -31 -30 -9 -22 26 -75 19 -103 -15 -21 -24 -24 -37
-20 -69 4 -32 1 -46 -21 -74 -33 -43 -33 -65 1 -73 21 -6 31 -1 52 24 24 29
27 30 46 16 36 -27 115 -5 115 33 0 21 28 15 41 -8 14 -27 52 -22 131 15 55
26 78 55 78 99 0 12 7 40 16 64 16 41 16 44 -7 90 -27 54 -50 63 -89 36z m78
-40 c18 -43 19 -51 6 -81 -8 -19 -14 -45 -14 -59 0 -51 -26 -80 -100 -109
l-71 -28 -24 30 -24 29 -34 -38 c-37 -40 -61 -43 -106 -15 -20 12 -24 10 -49
-20 -19 -23 -33 -31 -45 -26 -22 8 -22 11 10 57 21 30 26 48 24 83 -2 36 2 49
21 64 30 25 54 25 85 0 29 -23 54 -12 46 19 -8 30 25 54 67 48 42 -5 65 4 100
42 27 30 58 50 76 51 6 0 21 -21 32 -47z"/>
<path d="M1953 3569 c-15 -5 -23 -17 -23 -31 0 -39 -14 -52 -40 -38 -27 15
-66 6 -75 -17 -14 -39 -55 -278 -49 -295 3 -10 15 -18 27 -19 69 -3 81 -5 84
-16 2 -7 -14 -24 -37 -38 -65 -41 -72 -92 -21 -147 11 -11 23 -33 26 -49 7
-32 43 -59 79 -59 19 0 31 -11 52 -49 29 -55 60 -70 103 -51 41 18 63 57 70
126 6 51 13 71 40 104 43 54 38 74 -18 80 -55 6 -63 25 -18 43 19 8 36 23 39
33 7 31 -16 126 -33 137 -22 14 -49 2 -49 -21 0 -10 -8 -26 -19 -36 -16 -14
-20 -15 -30 -2 -19 22 -2 64 38 94 20 15 39 31 43 37 19 26 5 60 -52 124 -72
80 -106 102 -137 90z m114 -86 c40 -43 73 -86 73 -95 0 -19 -19 -40 -64 -71
-32 -22 -46 -82 -23 -104 21 -22 44 -10 64 32 29 61 48 45 59 -50 l7 -54 -37
-18 c-27 -13 -36 -22 -34 -38 2 -16 12 -21 43 -23 22 -2 44 -7 49 -12 4 -4 -8
-29 -28 -56 -36 -47 -40 -57 -36 -106 3 -57 -54 -129 -97 -122 -7 1 -17 2 -23
3 -5 0 -19 20 -31 44 -12 23 -26 45 -32 49 -8 5 -8 14 1 30 6 13 12 30 14 38
3 19 -11 60 -20 60 -4 0 -22 14 -41 30 -47 42 -37 63 26 55 66 -8 97 16 97 75
0 35 -5 47 -29 67 -24 21 -36 24 -77 21 -81 -8 -84 24 -8 69 96 56 19 169 -80
118 l-32 -17 7 34 c4 18 13 40 21 47 12 13 18 13 48 -2 38 -17 47 -12 53 28
10 70 41 62 130 -32z m-151 -58 c11 -3 25 -15 31 -28 14 -31 0 -57 -54 -96
-66 -48 -52 -86 28 -75 61 8 99 -21 99 -76 0 -54 -30 -75 -88 -62 -73 17 -87
-35 -21 -83 45 -33 57 -65 39 -100 -26 -49 -68 -37 -100 28 -12 23 -30 57 -40
76 -23 42 -15 60 41 98 29 19 39 32 37 47 -3 18 -11 21 -55 24 -28 2 -53 8
-56 15 -2 7 2 50 10 97 13 72 19 89 44 111 30 26 47 31 85 24z"/>
<path d="M2660 3475 c-8 -25 -19 -37 -38 -41 -39 -10 -62 -33 -62 -64 0 -31
17 -49 50 -55 13 -2 31 -12 41 -21 21 -19 49 -12 49 12 0 10 -5 32 -12 50 -10
29 -9 39 14 81 29 54 27 73 -7 73 -18 0 -26 -8 -35 -35z m50 13 c0 -7 -9 -27
-19 -44 -27 -44 -30 -65 -14 -97 8 -16 12 -36 9 -44 -6 -14 -9 -14 -25 1 -10
9 -35 21 -55 27 -27 7 -36 15 -36 31 0 26 27 58 50 58 20 0 45 26 54 58 8 23
36 31 36 10z"/>
<path d="M2246 3078 c-3 -13 -6 -29 -6 -35 0 -20 38 -53 60 -53 24 0 26 23 5
74 -18 42 -49 49 -59 14z m49 -24 c19 -45 19 -54 0 -54 -21 0 -45 42 -38 68 8
32 21 27 38 -14z"/>
<path d="M2442 2994 c-26 -18 -27 -46 -4 -94 22 -45 40 -44 67 4 26 47 23 67
-14 89 -25 15 -30 15 -49 1z m49 -14 c24 -13 24 -26 1 -74 -20 -40 -27 -38
-48 13 -24 58 -2 87 47 61z"/>
<path d="M2208 2919 c-10 -5 -18 -19 -18 -31 0 -11 -10 -40 -21 -64 -27 -52
-20 -81 13 -62 13 6 37 12 53 12 29 1 30 3 33 54 2 37 -2 62 -13 78 -17 27
-22 28 -47 13z m44 -27 c3 -9 4 -37 4 -61 -1 -42 -3 -44 -31 -46 -16 -1 -38
-5 -47 -9 -23 -10 -25 16 -3 34 8 7 17 28 21 49 4 20 11 41 16 48 12 15 35 7
40 -15z"/>
<path d="M2350 2868 c-16 -17 -20 -35 -20 -85 0 -39 -8 -87 -22 -125 -33 -96
-26 -124 38 -154 38 -18 42 -37 23 -123 -7 -34 -18 -55 -35 -66 -34 -22 -34
-82 1 -115 28 -26 30 -45 14 -100 -11 -36 -10 -41 20 -77 34 -42 40 -73 23
-115 -13 -31 -4 -65 24 -93 13 -12 18 -33 19 -69 0 -40 4 -51 18 -54 12 -2 22
7 32 30 15 37 14 47 -4 92 -6 16 -9 41 -6 56 3 14 -1 45 -10 69 -19 56 -19 64
4 92 18 22 19 22 44 6 52 -34 70 -23 146 90 43 64 49 91 29 111 -20 20 -53 14
-118 -23 -34 -19 -68 -35 -76 -35 -20 0 -36 36 -32 73 3 33 26 51 79 61 33 7
93 97 84 126 -8 25 -25 25 -68 0 -54 -32 -63 -21 -71 77 -7 86 -7 86 23 117
22 23 32 45 36 81 4 28 17 64 29 80 32 42 37 60 22 81 -12 16 -15 15 -50 -12
-20 -16 -36 -36 -36 -44 0 -22 -29 -60 -45 -60 -8 0 -20 23 -30 55 -9 31 -23
59 -35 65 -25 13 -26 13 -50 -12z m76 -63 c8 -29 21 -56 28 -58 21 -8 53 19
66 56 6 17 24 42 41 55 29 23 29 23 29 3 0 -12 -12 -39 -26 -60 -14 -22 -28
-59 -31 -83 -3 -24 -15 -54 -28 -68 -28 -31 -47 -68 -41 -78 2 -4 7 -35 10
-68 3 -34 8 -68 12 -77 8 -23 42 -21 79 3 36 24 41 24 49 4 6 -15 -12 -43 -59
-96 -8 -10 -26 -18 -39 -18 -38 0 -69 -32 -68 -68 1 -48 10 -68 35 -79 18 -9
34 -4 90 28 70 40 117 45 117 12 0 -19 -80 -142 -108 -167 -21 -19 -23 -19
-56 -1 -63 34 -100 -11 -76 -93 7 -26 12 -64 11 -85 -1 -20 4 -47 10 -59 15
-28 14 -75 -2 -94 -17 -21 -23 -9 -21 39 2 33 -3 48 -23 72 -22 25 -25 36 -20
65 12 67 8 91 -23 135 -30 43 -31 46 -18 88 14 48 8 73 -23 99 -28 23 -28 72
0 91 27 20 48 80 49 143 0 45 -3 52 -27 64 -70 35 -75 52 -43 146 12 32 23 90
25 129 2 51 8 72 21 82 25 18 41 1 60 -62z"/>
<path d="M2094 2735 c-10 -8 -36 -15 -56 -15 -54 0 -64 -24 -34 -81 31 -57 51
-61 70 -15 8 20 26 41 40 47 30 14 42 44 26 64 -15 19 -21 19 -46 0z m46 -12
c0 -14 -15 -30 -38 -42 -13 -7 -30 -29 -39 -49 l-15 -36 -19 25 c-23 29 -33
64 -24 78 3 6 21 11 38 11 18 0 39 5 47 10 18 12 50 13 50 3z"/>
<path d="M2807 2706 c-7 -17 13 -76 25 -76 12 0 10 13 -6 36 -17 24 -6 50 18
41 11 -4 16 -19 16 -45 0 -21 5 -43 11 -49 6 -6 9 -23 7 -39 -2 -21 -12 -34
-37 -46 -46 -23 -54 -40 -37 -75 8 -15 17 -36 20 -45 6 -22 35 -23 80 -4 40
17 54 10 54 -26 0 -15 9 -39 21 -54 21 -27 27 -69 13 -90 -4 -6 -23 -14 -43
-18 -26 -4 -45 -18 -69 -47 -30 -37 -32 -45 -26 -90 9 -66 -7 -63 -40 8 l-27
57 27 50 c45 84 38 128 -32 219 -51 68 -51 73 17 151 23 27 40 51 36 54 -3 3
-7 3 -8 1 -66 -79 -97 -123 -97 -138 0 -9 21 -45 46 -80 60 -80 68 -129 30
-193 -32 -54 -32 -62 -5 -124 23 -51 34 -64 58 -64 11 0 12 12 8 53 -6 48 -4
55 26 89 18 21 44 39 60 42 16 3 35 10 43 17 21 17 18 82 -6 109 -11 13 -20
35 -20 50 0 45 -22 55 -74 35 -48 -19 -66 -14 -66 15 0 10 -4 22 -10 25 -23
14 -10 46 24 60 19 8 38 20 42 26 10 16 7 68 -4 82 -5 7 -10 27 -10 44 0 18
-3 37 -7 43 -9 15 -52 12 -58 -4z"/>
<path d="M2160 2680 c-9 -6 -15 -29 -17 -65 -1 -45 4 -66 28 -111 17 -33 29
-71 29 -94 0 -39 16 -55 40 -40 7 4 15 32 18 62 4 47 0 63 -27 113 -17 32 -31
72 -31 90 0 37 -19 58 -40 45z m25 -37 c14 -67 26 -101 40 -113 31 -26 31
-150 0 -150 -11 0 -15 12 -15 41 0 25 -9 57 -26 84 -25 43 -37 107 -27 146 8
28 22 23 28 -8z"/>
<path d="M3890 2260 c-22 -22 -25 -57 -11 -107 8 -27 5 -41 -15 -78 -15 -29
-24 -63 -24 -90 0 -42 -18 -75 -41 -75 -6 0 -21 12 -36 26 -23 23 -25 30 -19
82 17 148 18 170 7 191 -16 29 -56 27 -77 -4 -16 -24 -20 -68 -10 -112 2 -12
0 -37 -6 -56 -9 -30 -7 -45 14 -99 14 -34 28 -80 32 -101 5 -24 16 -43 32 -53
24 -16 28 -15 80 11 30 15 57 32 60 37 3 5 10 39 14 76 8 60 12 70 45 96 46
37 65 74 65 130 0 67 -25 122 -61 135 -25 9 -33 7 -49 -9z m57 -8 c19 -12 43
-78 43 -117 0 -46 -19 -81 -69 -128 -39 -35 -46 -54 -42 -103 3 -42 -17 -70
-67 -96 -45 -23 -53 -25 -70 -12 -12 8 -25 34 -31 65 -6 27 -20 71 -32 96 -17
37 -18 50 -10 75 6 17 8 54 5 84 -7 57 12 104 41 104 35 0 44 -68 22 -155 -23
-87 7 -165 63 -165 29 0 53 37 52 78 -1 22 8 57 23 87 23 47 24 55 14 108 -9
44 -9 60 1 72 13 16 38 19 57 7z"/>
<path d="M2073 2228 c-22 -6 -47 -26 -73 -59 -40 -50 -44 -63 -40 -128 1 -25
-6 -41 -29 -65 -39 -40 -50 -72 -47 -133 3 -56 9 -68 36 -83 15 -8 25 -4 49
22 25 27 34 31 48 22 22 -13 29 -68 11 -83 -7 -6 -25 -20 -40 -32 -35 -26 -38
-83 -8 -122 29 -37 53 -41 99 -17 l40 20 40 -41 c29 -31 38 -47 35 -65 -6 -33
33 -71 82 -80 31 -6 40 -3 55 15 25 30 38 26 56 -16 8 -21 24 -48 34 -62 10
-13 19 -33 19 -45 0 -34 57 -117 75 -110 21 8 29 48 17 81 -12 36 -1 65 31 82
34 18 49 62 35 102 -16 45 -4 46 47 1 25 -22 61 -43 80 -46 24 -5 43 -18 62
-43 16 -20 45 -54 65 -75 37 -38 37 -38 23 -77 -13 -37 -12 -42 5 -64 29 -36
65 -42 111 -17 53 27 65 26 109 -12 53 -46 124 -88 148 -88 39 0 33 19 -18 56
-33 24 -60 53 -75 85 -27 53 -42 64 -95 72 -61 9 -66 14 -76 80 -8 53 -13 64
-35 74 -20 10 -34 10 -58 2 -29 -10 -35 -9 -61 16 -16 15 -57 46 -92 69 -60
39 -63 43 -68 89 -8 69 -55 98 -97 60 -29 -27 -56 -117 -49 -158 4 -19 11 -35
16 -35 5 0 5 14 -1 32 -11 40 24 154 50 161 24 6 61 -10 62 -28 1 -8 3 -19 4
-25 1 -5 3 -21 4 -35 1 -20 16 -35 69 -69 37 -24 78 -56 92 -70 22 -24 29 -26
75 -21 62 8 71 0 79 -70 6 -58 31 -85 80 -85 43 0 70 -21 96 -75 14 -29 39
-57 68 -77 25 -17 41 -33 34 -36 -15 -5 -132 67 -155 96 -23 27 -60 28 -110 3
-41 -21 -67 -18 -93 10 -16 18 -16 32 1 85 5 16 -3 31 -32 62 -21 22 -52 56
-68 75 -19 21 -46 39 -70 46 -23 6 -55 26 -75 46 -19 19 -42 35 -52 35 -17 0
-18 -6 -12 -58 l6 -59 -35 -22 c-37 -22 -53 -60 -39 -89 5 -9 8 -24 7 -32 -1
-8 -3 -21 -3 -27 -1 -7 -8 -13 -14 -13 -14 1 -58 85 -58 109 0 8 -11 29 -25
47 -14 18 -25 41 -25 51 0 44 -41 55 -76 22 -20 -19 -27 -20 -57 -10 -43 15
-60 34 -61 69 -1 32 -40 85 -74 101 -18 9 -30 7 -58 -8 -28 -15 -41 -17 -59
-9 -39 18 -61 95 -32 117 6 6 25 21 40 33 50 41 34 118 -25 118 -10 0 -25 -11
-34 -25 -37 -56 -76 -10 -68 79 4 38 11 52 56 108 16 21 21 39 19 76 -1 39 3
55 28 90 43 58 73 76 118 69 48 -8 54 -16 59 -72 4 -36 0 -53 -13 -67 -29 -32
-7 -70 52 -89 37 -12 52 -22 62 -45 24 -56 13 -123 -17 -104 -28 18 -50 11
-50 -15 0 -18 11 -32 40 -50 54 -34 104 -106 129 -185 16 -49 28 -70 52 -85
26 -17 29 -24 24 -50 -19 -89 -18 -103 5 -110 13 -4 32 -2 45 5 24 13 52 60
35 60 -5 0 -12 -9 -15 -20 -8 -25 -38 -42 -59 -34 -19 7 -19 9 -4 74 l12 51
-36 33 c-21 19 -39 47 -43 67 -17 82 -108 209 -150 209 -13 0 -31 37 -22 46 2
3 17 -1 31 -8 34 -15 46 -1 46 55 0 58 -24 105 -57 112 -50 11 -70 23 -76 44
-3 11 1 25 9 32 18 15 19 109 2 131 -20 24 -69 36 -105 26z"/>
<path d="M2942 2148 c-7 -7 -12 -23 -12 -36 0 -13 -4 -31 -9 -40 -15 -28 -20
-83 -11 -107 5 -13 32 -38 60 -57 35 -23 53 -42 58 -63 15 -56 122 -104 122
-54 0 13 -11 25 -35 35 -19 8 -36 19 -36 24 -1 6 -2 16 -3 23 -1 6 1 24 5 39
9 35 -11 64 -52 72 -31 6 -32 6 -25 54 3 26 8 58 11 71 2 14 0 30 -6 38 -14
16 -51 17 -67 1z m59 -11 c3 -5 1 -38 -6 -74 -13 -70 -5 -93 34 -93 29 0 44
-26 37 -61 -10 -49 3 -78 40 -94 19 -8 34 -19 34 -24 0 -15 -14 -14 -55 6 -25
12 -38 26 -43 47 -7 28 -58 76 -109 104 -18 10 -21 79 -4 110 5 10 11 29 13
43 2 13 7 30 12 37 8 13 37 13 47 -1z"/>
<path d="M4481 1955 c-52 -48 -112 -72 -190 -74 -29 -1 -61 -6 -71 -11 -22
-12 -43 -61 -38 -92 2 -18 8 -22 30 -20 19 2 30 -4 38 -18 6 -11 36 -32 66
-45 29 -13 54 -29 54 -35 0 -7 -10 -6 -27 3 -16 8 -41 17 -58 21 -16 4 -40 17
-52 28 -35 32 -57 20 -65 -37 -9 -57 -3 -106 19 -153 l16 -33 71 3 c77 3 104
-13 36 -23 -22 -3 -45 -10 -51 -16 -16 -16 5 -57 52 -97 39 -33 48 -36 101
-36 54 0 62 -3 91 -34 46 -50 133 -107 152 -100 25 10 19 74 -10 108 -24 28
-32 56 -18 69 10 10 33 -13 33 -33 0 -9 9 -29 20 -43 13 -16 20 -40 20 -67 0
-47 20 -70 98 -113 42 -23 51 -25 67 -13 29 21 27 131 -2 173 -13 17 -23 34
-23 37 0 13 30 5 38 -10 15 -27 60 -10 67 24 3 15 15 50 27 77 28 67 33 116
15 156 -8 19 -19 46 -25 61 -6 15 -25 34 -41 43 -21 11 -33 27 -41 54 -18 67
-57 77 -80 21 -18 -42 -67 -87 -82 -72 -8 8 -2 19 25 45 21 18 37 40 37 47 0
7 15 26 33 41 32 27 32 27 13 48 -11 12 -36 26 -57 31 -23 7 -46 22 -59 40
-22 30 -62 41 -75 19 -4 -6 -9 -32 -12 -57 -5 -48 -25 -76 -32 -45 -2 9 2 41
9 70 12 47 11 55 -4 72 -33 37 -65 33 -115 -14z m105 4 c10 -12 17 -23 16 -25
-11 -12 -30 -96 -25 -113 10 -41 47 -19 57 33 3 16 7 30 9 32 2 2 18 -21 36
-51 33 -54 33 -56 16 -75 -10 -11 -30 -20 -44 -20 -13 0 -37 -12 -52 -26 -37
-35 -58 -26 -89 38 l-25 53 -51 0 c-54 0 -79 13 -87 45 -4 15 1 22 21 26 44
11 95 40 126 73 35 36 65 39 92 10z m120 -63 c19 -18 53 -39 75 -45 46 -14 53
-42 14 -59 -14 -6 -25 -19 -25 -29 0 -9 -16 -31 -35 -49 -37 -34 -45 -61 -20
-70 22 -9 61 21 87 66 31 53 53 52 67 -3 8 -34 18 -48 45 -62 24 -13 37 -29
42 -50 4 -16 13 -39 20 -50 19 -27 17 -69 -6 -114 -10 -21 -24 -60 -31 -86
-14 -54 -32 -66 -60 -37 -10 12 -26 19 -34 16 -19 -8 -19 -38 -1 -53 13 -11
20 -30 30 -86 2 -11 0 -29 -5 -40 -7 -19 -8 -19 -8 2 -2 44 -44 139 -76 168
-46 43 -58 71 -49 114 11 51 7 62 -30 96 -18 17 -45 49 -59 72 -15 23 -44 51
-64 62 -21 11 -30 20 -21 21 9 0 30 11 46 25 17 14 40 25 53 25 27 0 59 27 59
50 0 9 -18 44 -40 78 -22 33 -40 64 -40 67 0 16 34 1 66 -29z m-368 -55 c13
-36 45 -55 83 -47 44 9 57 -1 89 -69 22 -47 38 -66 61 -75 31 -13 94 -88 84
-99 -3 -2 -19 12 -36 32 -39 47 -66 48 -108 2 -17 -19 -38 -35 -46 -35 -9 0
-21 -12 -27 -26 -11 -24 -10 -29 17 -50 29 -23 29 -23 10 -45 -30 -33 -74 -47
-129 -40 -51 6 -74 26 -63 55 4 11 19 16 47 16 28 0 43 5 47 16 8 20 -21 44
-47 39 -10 -2 -39 -7 -64 -10 -46 -7 -46 -7 -62 30 -9 21 -16 54 -15 74 0 126
2 129 53 86 16 -14 39 -25 51 -25 12 -1 33 -7 47 -15 37 -21 52 -19 48 7 -2
16 -17 28 -53 43 -27 11 -52 23 -53 28 -9 20 -36 37 -58 37 -30 0 -31 23 -4
68 18 29 24 32 69 32 45 0 50 -2 59 -29z m267 -258 c14 -15 25 -31 25 -35 0
-4 18 -12 39 -19 50 -15 67 -44 54 -96 -10 -45 -30 -52 -64 -22 -34 31 -96 56
-153 63 -27 3 -53 11 -57 18 -10 16 6 45 29 52 10 4 31 20 47 36 35 37 47 37
80 3z m-28 -139 c26 -9 63 -29 80 -45 18 -16 39 -26 47 -23 9 3 21 -6 32 -25
9 -16 28 -35 40 -42 13 -7 29 -28 35 -48 6 -20 15 -40 19 -46 4 -5 12 -32 18
-58 13 -65 -1 -69 -75 -20 -56 37 -58 40 -59 85 0 31 -8 55 -22 73 -12 15 -22
36 -22 45 0 23 -26 44 -45 36 -24 -9 -18 -60 10 -90 27 -30 33 -73 11 -82 -16
-6 -108 58 -143 100 -20 23 -31 26 -82 26 -50 0 -65 4 -88 25 l-28 26 48 -7
c52 -7 80 6 129 57 31 34 33 34 95 13z"/>
<path d="M4214 1337 c-2 -7 2 -26 10 -42 8 -16 13 -33 10 -37 -10 -16 28 -48
56 -48 26 0 40 15 40 44 0 7 -16 31 -36 54 -35 42 -70 54 -80 29z m70 -37 c40
-44 39 -42 30 -64 -13 -34 -64 -11 -64 29 0 11 -7 29 -15 39 -14 19 -12 36 4
36 5 0 25 -18 45 -40z"/>
<path d="M4369 1254 c-11 -14 -10 -19 11 -35 14 -10 39 -32 55 -48 42 -40 72
-45 91 -16 14 21 14 27 0 53 -27 52 -127 82 -157 46z m121 -22 c15 -12 26 -31
28 -50 3 -28 0 -32 -20 -32 -28 1 -122 85 -112 101 9 16 73 4 104 -19z"/>
<path d="M4261 1162 c-7 -13 -6 -27 4 -45 7 -15 15 -39 17 -54 4 -39 38 -42
60 -6 10 16 23 36 30 45 10 14 9 21 -6 37 -11 12 -27 21 -37 21 -10 0 -21 5
-24 10 -10 16 -33 12 -44 -8z m71 -14 c35 -12 40 -38 12 -64 -11 -11 -23 -26
-26 -34 -7 -23 -28 -1 -28 30 0 16 -4 32 -10 35 -5 3 -10 18 -10 32 0 20 4 24
18 18 9 -4 29 -11 44 -17z"/>
<path d="M4584 1172 c-12 -2 -24 -12 -27 -22 -8 -32 14 -48 73 -52 51 -3 55
-1 58 21 2 13 -1 28 -6 33 -12 12 -71 25 -98 20z m77 -22 c10 -6 19 -20 19
-30 0 -18 -5 -20 -42 -14 -62 8 -68 11 -68 34 0 16 6 20 36 20 19 0 44 -5 55
-10z"/>
<path d="M2975 1064 c-16 -8 -38 -22 -47 -31 -12 -10 -27 -13 -48 -9 -16 3
-43 9 -60 12 -29 6 -30 5 -30 -28 0 -39 15 -64 50 -81 14 -7 29 -22 34 -33 25
-55 88 -45 94 14 2 20 11 38 23 45 22 13 49 67 49 97 0 10 -7 21 -16 24 -19 7
-14 9 -49 -10z m44 -49 c-8 -21 -24 -44 -36 -53 -15 -9 -23 -24 -23 -41 0 -53
-50 -70 -72 -24 -7 15 -24 33 -38 40 -32 16 -50 41 -50 70 0 25 11 29 41 12
33 -17 78 -14 102 9 27 26 69 43 81 32 4 -4 2 -25 -5 -45z"/>
<path d="M3064 1052 c-7 -4 -15 -33 -19 -64 -7 -56 -7 -57 23 -72 17 -9 42
-16 56 -16 39 0 69 -18 99 -61 16 -22 37 -39 48 -39 22 0 21 -4 24 77 3 71 -7
86 -52 80 -36 -5 -62 8 -73 38 -5 13 -27 33 -49 45 -46 23 -42 22 -57 12z m96
-68 c11 -28 53 -48 82 -38 32 10 44 -10 42 -71 -1 -30 -4 -59 -8 -62 -4 -4
-26 15 -49 41 -37 42 -49 49 -95 57 -71 11 -85 23 -77 68 13 74 11 73 56 50
22 -11 44 -31 49 -45z"/>
<path d="M4386 1028 c-19 -26 -20 -51 -6 -79 20 -36 71 -14 64 29 -1 6 -2 26
-3 42 -1 37 -32 41 -55 8z m44 -32 c0 -48 -13 -65 -35 -46 -16 13 -13 53 5 75
21 25 30 17 30 -29z"/>
<path d="M4471 982 c-6 -11 -5 -24 2 -37 6 -11 10 -34 9 -52 -2 -27 2 -34 21
-38 13 -4 27 -5 33 -4 5 2 20 -1 33 -5 37 -13 53 10 36 52 -8 17 -19 32 -25
32 -16 0 -12 -17 6 -24 20 -8 14 -52 -6 -47 -8 2 -28 4 -45 6 -16 2 -34 3 -39
4 -4 1 -6 13 -3 28 3 15 0 37 -6 50 -8 17 -7 27 1 35 12 12 15 8 26 -44 4 -19
13 -28 26 -28 11 0 20 4 20 10 0 5 -7 7 -15 4 -8 -4 -15 -2 -16 2 -6 69 -36
98 -58 56z"/>
<path d="M4677 933 c-16 -16 -11 -57 8 -73 23 -19 76 -15 92 6 21 29 12 45
-39 64 -40 15 -48 16 -61 3z m51 -12 c9 -5 25 -12 35 -15 29 -9 3 -46 -31 -46
-34 0 -52 16 -52 47 0 25 18 30 48 14z"/>
<path d="M4327 865 c-20 -19 -43 -35 -51 -35 -9 0 -23 -11 -32 -24 -13 -22
-14 -29 -2 -53 20 -42 51 -41 76 2 12 19 32 39 46 45 22 8 56 45 56 62 0 11
-31 38 -44 38 -7 0 -29 -16 -49 -35z m74 3 c10 -17 -23 -58 -46 -58 -8 0 -26
-18 -40 -40 -27 -43 -36 -48 -55 -26 -20 25 -7 58 30 79 19 10 43 29 54 42 20
25 44 27 57 3z"/>
<path d="M4864 818 c4 -13 10 -31 13 -40 4 -12 -2 -21 -20 -27 -33 -13 -42
-28 -42 -76 0 -39 -1 -40 -50 -56 -53 -17 -66 -42 -33 -63 13 -8 24 -6 47 7
16 9 43 18 59 20 46 5 65 25 58 61 -2 17 3 61 12 98 18 73 10 98 -30 98 -16 0
-19 -4 -14 -22z m36 -3 c9 -11 8 -26 -5 -71 -9 -32 -14 -71 -11 -88 8 -41 -2
-53 -47 -60 -22 -3 -48 -12 -59 -20 -21 -15 -61 -10 -55 8 2 6 21 16 43 21 60
15 67 23 61 65 -6 45 0 55 36 69 29 11 35 37 17 72 -12 22 2 26 20 4z"/>
<path d="M3153 734 c-17 -7 -16 -44 2 -68 8 -11 15 -34 15 -52 0 -40 24 -68
48 -55 34 19 82 74 82 95 0 34 -27 63 -62 69 -18 3 -42 7 -53 10 -11 3 -26 4
-32 1z m75 -22 c31 -4 62 -33 62 -59 0 -17 -67 -83 -84 -83 -16 0 -29 27 -20
41 3 5 -4 28 -16 51 -24 45 -20 75 8 63 9 -5 32 -10 50 -13z"/>
<path d="M4637 543 c-4 -3 -7 -15 -7 -25 0 -11 -14 -32 -30 -47 -30 -27 -33
-61 -6 -61 7 0 20 -6 30 -13 17 -12 17 -15 -9 -53 -27 -39 -43 -44 -58 -18
-14 24 -47 16 -65 -16 -9 -16 -22 -30 -28 -30 -6 0 -19 -9 -29 -20 -17 -18
-17 -22 -4 -36 17 -17 49 -9 49 12 0 23 35 35 69 23 55 -19 79 -5 111 65 23
52 37 69 73 90 24 14 56 26 71 26 33 0 76 41 76 73 0 36 -10 39 -47 16 -40
-25 -112 -22 -142 5 -18 17 -43 21 -54 9z m53 -23 c36 -26 110 -29 144 -7 31
21 36 21 36 3 0 -29 -41 -66 -74 -66 -55 0 -113 -46 -146 -117 -32 -68 -59
-85 -100 -63 -30 16 -64 5 -78 -25 -7 -15 -17 -23 -22 -20 -15 9 -12 35 4 35
8 0 28 17 44 38 l30 37 24 -22 c32 -30 46 -29 61 5 6 15 17 31 24 35 25 16 14
47 -22 63 -24 9 -33 19 -29 29 4 8 13 15 20 15 13 0 24 17 38 63 7 22 12 21
46 -3z"/>
<path d="M4233 446 c-20 -24 -34 -31 -61 -31 -59 -1 -63 -26 -11 -77 24 -25
54 -47 67 -50 36 -10 62 20 66 74 1 25 8 54 15 62 18 22 8 42 -23 48 -21 4
-32 -2 -53 -26z m71 5 c3 -4 -1 -17 -9 -27 -8 -10 -15 -37 -15 -60 0 -77 -41
-85 -106 -20 -24 25 -44 47 -44 50 0 3 18 6 39 6 32 0 44 6 63 29 22 29 61 40
72 22z"/>
<path d="M4346 404 c-11 -28 23 -51 87 -58 l58 -6 -3 27 c-3 24 -9 29 -43 35
-22 4 -52 10 -66 13 -20 5 -28 2 -33 -11z m89 -13 c28 -4 41 -11 43 -25 3 -14
0 -17 -13 -12 -9 3 -32 6 -50 6 -35 0 -70 24 -59 41 3 6 13 7 23 3 9 -4 34
-10 56 -13z"/>
</g>
</svg>
